;TYPE=PLATED
;Layer: PTH_Through_Via
;EasyEDA Pro v2.2.38.8, 2025-04-26 19:17:01
;Gerber Generator version 0.3
M48
METRIC,LZ,0000.00000
;Hole size 1 = 0.30500 METRIC
T01C0.30500
%
G05
G90
T01
X12.52804Y-27.686
X10.5483Y-27.686
X14.5034Y-27.686
X11.938Y-35.814
X13.87455Y-35.78245
X12.319Y-17.272
X10.287Y-17.272
X10.16Y-13.462
X12.319Y-13.462
X14.986Y-35.687
X14.351Y-13.462
X14.351Y-17.272
X10.287Y-8.001
X14.732Y-8.382
X16.637Y-4.572
X6.731Y-9.271
X8.636Y-19.05
X6.35Y-35.56
X6.35Y-27.94
X5.08Y-19.05
X12.319Y-15.367
X14.732Y-15.367
X10.033Y-15.367
M30