;TYPE=PLATED
;Layer: PTH_Through_Via
;EasyEDA Pro v2.2.39.2, 2025-05-20 15:29:26
;Gerber Generator version 0.3
M48
METRIC,LZ,0000.00000
;Hole size 1 = 0.30500 METRIC
T01C0.30500
%
G05
G90
T01
X10.06424Y-9.0932
X8.0845Y-9.0932
X12.0396Y-9.0932
X9.4742Y-17.2212
X11.41075Y-17.18965
X12.17225Y-32.27775
X14.20425Y-32.27775
X14.33125Y-36.08775
X12.17225Y-36.08775
X10.14025Y-36.08775
X10.14025Y-32.27775
X3.81Y-22.86
X3.81Y-15.24
X12.17225Y-34.18275
X9.75925Y-34.18275
X14.45825Y-34.18275
X16.637Y-35.67857
X16.637Y-36.33465
X11.35349Y-45.73506
X8.07307Y-44.79651
X5.42999Y-44.35889
X9.779Y-42.799
X14.29649Y-42.799
X5.334Y-37.211
X5.334Y-39.53931
X5.334Y-34.74474
X5.334Y-31.89125
X5.334Y-27.8568
X15.24Y-12.954
M30