;TYPE=PLATED
;Layer: PTH_Through
;EasyEDA Pro v2.2.38.8, 2025-04-26 19:17:01
;Gerber Generator version 0.3
M48
METRIC,LZ,0000.00000
;Hole size 1 = 0.30500 METRIC
T01C0.30500
;Hole size 2 = 1.01600 METRIC
T02C1.01600
;Hole size 3 = 1.30002 METRIC
T03C1.30002
%
G05
G90
T01
X12.52804Y-27.686
X10.5483Y-27.686
X14.5034Y-27.686
X11.938Y-35.814
X13.87455Y-35.78245
X12.319Y-17.272
X10.287Y-17.272
X10.16Y-13.462
X12.319Y-13.462
X14.986Y-35.687
X14.351Y-13.462
X14.351Y-17.272
X10.287Y-8.001
X14.732Y-8.382
X16.637Y-4.572
X6.731Y-9.271
X8.636Y-19.05
X6.35Y-35.56
X6.35Y-27.94
X5.08Y-19.05
X12.319Y-15.367
X14.732Y-15.367
X10.033Y-15.367
T02
X1.27Y-1.27
X1.27Y-3.81
X1.27Y-6.35
X1.27Y-8.89
X1.27Y-11.43
X1.27Y-13.97
X1.27Y-16.51
X1.27Y-19.05
X1.27Y-21.59
X1.27Y-24.13
X19.05Y-1.27
X19.05Y-3.81
X19.05Y-6.35
X19.05Y-8.89
X19.05Y-11.43
X19.05Y-13.97
X19.05Y-24.13
X19.05Y-21.59
X19.05Y-19.05
X19.05Y-16.51
X1.27Y-26.67
X1.27Y-29.21
X1.27Y-31.75
X1.27Y-34.29
X1.27Y-36.83
X1.27Y-39.37
X1.27Y-49.53
X1.27Y-46.99
X1.27Y-44.45
X1.27Y-41.91
X19.05Y-26.67
X19.05Y-41.91
X19.05Y-44.45
X19.05Y-46.99
X19.05Y-49.53
X19.05Y-39.37
X19.05Y-36.83
X19.05Y-34.29
X19.05Y-31.75
X19.05Y-29.21
X6.35Y-29.21
X6.35Y-26.67
X6.35Y-34.29
X6.35Y-36.83
X6.35Y-31.75
X16.51Y-19.05
T03
X15.537Y-3.175
X12.03701Y-3.175
X8.53702Y-3.175
X5.037Y-3.175
X4.783Y-47.625
X8.28299Y-47.625
X11.78298Y-47.625
X15.283Y-47.625
M30