;TYPE=PLATED
;Layer: PTH_Through
;EasyEDA Pro v2.2.39.2, 2025-05-20 15:29:26
;Gerber Generator version 0.3
M48
METRIC,LZ,0000.00000
;Hole size 1 = 0.30500 METRIC
T01C0.30500
;Hole size 2 = 1.01600 METRIC
T02C1.01600
;Hole size 3 = 1.30002 METRIC
T03C1.30002
%
G05
G90
T01
X10.06424Y-9.0932
X8.0845Y-9.0932
X12.0396Y-9.0932
X9.4742Y-17.2212
X11.41075Y-17.18965
X12.17225Y-32.27775
X14.20425Y-32.27775
X14.33125Y-36.08775
X12.17225Y-36.08775
X10.14025Y-36.08775
X10.14025Y-32.27775
X3.81Y-22.86
X3.81Y-15.24
X12.17225Y-34.18275
X9.75925Y-34.18275
X14.45825Y-34.18275
X16.637Y-35.67857
X16.637Y-36.33465
X11.35349Y-45.73506
X8.07307Y-44.79651
X5.42999Y-44.35889
X9.779Y-42.799
X14.29649Y-42.799
X5.334Y-37.211
X5.334Y-39.53931
X5.334Y-34.74474
X5.334Y-31.89125
X5.334Y-27.8568
X15.24Y-12.954
T02
X1.27Y-1.27
X1.27Y-3.81
X1.27Y-6.35
X1.27Y-8.89
X1.27Y-11.43
X1.27Y-13.97
X1.27Y-16.51
X1.27Y-19.05
X1.27Y-21.59
X1.27Y-24.13
X19.05Y-1.27
X19.05Y-3.81
X19.05Y-6.35
X19.05Y-8.89
X19.05Y-11.43
X19.05Y-13.97
X19.05Y-24.13
X19.05Y-21.59
X19.05Y-19.05
X19.05Y-16.51
X1.27Y-26.67
X1.27Y-29.21
X1.27Y-31.75
X1.27Y-34.29
X1.27Y-36.83
X1.27Y-39.37
X1.27Y-49.53
X1.27Y-46.99
X1.27Y-44.45
X1.27Y-41.91
X19.05Y-26.67
X19.05Y-41.91
X19.05Y-44.45
X19.05Y-46.99
X19.05Y-49.53
X19.05Y-39.37
X19.05Y-36.83
X19.05Y-34.29
X19.05Y-31.75
X19.05Y-29.21
X3.81Y-16.51
X3.81Y-13.97
X3.81Y-21.59
X3.81Y-24.13
X3.81Y-19.05
X13.97Y-19.05
T03
X15.41Y-3.175
X11.91001Y-3.175
X8.41002Y-3.175
X4.91Y-3.175
X4.783Y-47.625
X8.28299Y-47.625
X11.78298Y-47.625
X15.283Y-47.625
M30