G04 Layer: TopSolderMaskLayer*
G04 EasyEDA Pro v2.2.39.2, 2025-05-20 15:29:26*
G04 Gerber Generator version 0.3*
G04 Scale: 100 percent, Rotated: No, Reflected: No*
G04 Dimensions in millimeters*
G04 Leading zeros omitted, absolute positions, 4 integers and 5 decimals*
G04 Generated by one-click*
%FSLAX45Y45*%
%MOMM*%
%AMRoundRect*1,1,$1,$2,$3*1,1,$1,$4,$5*1,1,$1,0-$2,0-$3*1,1,$1,0-$4,0-$5*20,1,$1,$2,$3,$4,$5,0*20,1,$1,$4,$5,0-$2,0-$3,0*20,1,$1,0-$2,0-$3,0-$4,0-$5,0*20,1,$1,0-$4,0-$5,$2,$3,0*4,1,4,$2,$3,$4,$5,0-$2,0-$3,0-$4,0-$5,$2,$3,0*%
%ADD10C,1.7018*%
%ADD11RoundRect,0.0879X-0.60685X-0.28186X-0.60685X0.28186*%
%ADD12RoundRect,0.08449X-0.20856X0.85855X0.20856X0.85855*%
%ADD13RoundRect,0.09588X-0.80286X1.75286X0.80286X1.75286*%
%ADD14C,2.2016*%
%ADD15RoundRect,0.09598X-0.82031X1.35281X0.82031X1.35281*%
%ADD16RoundRect,0.0906X-0.40514X0.45514X0.40514X0.45514*%
%ADD17RoundRect,0.09131X-0.40514X0.45514X0.40514X0.45514*%
%ADD18RoundRect,0.09302X-0.60429X-0.50429X-0.60429X0.50429*%
G75*


G04 Pad Start*
G54D10*
G01X127000Y-127000D03*
G01X127000Y-381000D03*
G01X127000Y-635000D03*
G01X127000Y-889000D03*
G01X127000Y-1143000D03*
G01X127000Y-1397000D03*
G01X127000Y-1651000D03*
G01X127000Y-1905000D03*
G01X127000Y-2159000D03*
G01X127000Y-2413000D03*
G01X1905000Y-127000D03*
G01X1905000Y-381000D03*
G01X1905000Y-635000D03*
G01X1905000Y-889000D03*
G01X1905000Y-1143000D03*
G01X1905000Y-1397000D03*
G01X1905000Y-2413000D03*
G01X1905000Y-2159000D03*
G01X1905000Y-1905000D03*
G01X1905000Y-1651000D03*
G01X127000Y-2667000D03*
G01X127000Y-2921000D03*
G01X127000Y-3175000D03*
G01X127000Y-3429000D03*
G01X127000Y-3683000D03*
G01X127000Y-3937000D03*
G01X127000Y-4953000D03*
G01X127000Y-4699000D03*
G01X127000Y-4445000D03*
G01X127000Y-4191000D03*
G01X1905000Y-2667000D03*
G01X1905000Y-4191000D03*
G01X1905000Y-4445000D03*
G01X1905000Y-4699000D03*
G01X1905000Y-4953000D03*
G01X1905000Y-3937000D03*
G01X1905000Y-3683000D03*
G01X1905000Y-3429000D03*
G01X1905000Y-3175000D03*
G01X1905000Y-2921000D03*
G01X381000Y-1651000D03*
G01X381000Y-1397000D03*
G01X381000Y-2159000D03*
G01X381000Y-2413000D03*
G01X381000Y-1905000D03*
G01X1397000Y-1905000D03*
G54D11*
G01X1325826Y-3843471D03*
G01X1325826Y-3653479D03*
G01X1565825Y-3653479D03*
G01X1565825Y-3748475D03*
G01X1565825Y-3843471D03*
G01X1325826Y-3748475D03*
G54D12*
G01X1205916Y-1035710D03*
G01X1140917Y-1035710D03*
G01X1075919Y-1035710D03*
G01X1010920Y-1035710D03*
G01X945921Y-1035710D03*
G01X880923Y-1035710D03*
G01X815924Y-1035710D03*
G01X815924Y-1595730D03*
G01X880923Y-1595730D03*
G01X945921Y-1595730D03*
G01X1010920Y-1595730D03*
G01X1075919Y-1595730D03*
G01X1140917Y-1595730D03*
G01X1205916Y-1595730D03*
G54D13*
G01X790531Y-3850075D03*
G01X1110520Y-3850075D03*
G54D14*
G01X1540993Y-317500D03*
G01X1191006Y-317500D03*
G01X840994Y-317500D03*
G01X491007Y-317500D03*
G01X478307Y-4762500D03*
G01X828294Y-4762500D03*
G01X1178306Y-4762500D03*
G01X1528293Y-4762500D03*
G54D15*
G01X798786Y-3418275D03*
G01X1102265Y-3418275D03*
G54D17*
G01X1414228Y-3977075D03*
G01X1274223Y-3977075D03*
G54D15*
G01X1635665Y-3418275D03*
G01X1332186Y-3418275D03*
G54D18*
G01X1409700Y-1704391D03*
G01X1409700Y-1394409D03*
G04 Pad End*

M02*

