G04 Layer: DrillDrawingLayer*
G04 EasyEDA Pro v2.2.38.8, 2025-04-26 19:17:01*
G04 Gerber Generator version 0.3*
G04 Scale: 100 percent, Rotated: No, Reflected: No*
G04 Dimensions in millimeters*
G04 Leading zeros omitted, absolute positions, 4 integers and 5 decimals*
%FSLAX45Y45*%
%MOMM*%
%AMIconRect*4,1,4,0.2,-0.2,-0.2,-0.2,-0.2,0.2,0.2,0.2,0.2,-0.2,0*4,0,4,0.166667,-0.166667,0.166667,0.166667,-0.166667,0.166667,-0.166667,-0.166667,0.166667,-0.166667,0*%
%AMIconTriangle*4,1,3,-0.242567,0.171767,0.242567,0.171767,0,-0.2706,-0.242567,0.171767,0*4,0,3,-0.189767,0.1386,0,-0.1953,0.190167,0.1386,-0.189767,0.1386,0*%
%ADD10IconRect*%
%ADD11C,0.44X0.373333*%
%ADD12IconTriangle*%
G75*


G04 Drill Drawing Start*
G54D10*
G01X478300Y-4762500D03*
G01X503700Y-317500D03*
G01X828299Y-4762500D03*
G01X853702Y-317500D03*
G01X1178298Y-4762500D03*
G01X1203701Y-317500D03*
G01X1528300Y-4762500D03*
G01X1553700Y-317500D03*
G54D11*
G01X508000Y-1905000D03*
G01X635000Y-3556000D03*
G01X635000Y-2794000D03*
G01X673100Y-927100D03*
G01X863600Y-1905000D03*
G01X1003300Y-1536700D03*
G01X1016000Y-1346200D03*
G01X1028700Y-1727200D03*
G01X1028700Y-800100D03*
G01X1054830Y-2768600D03*
G01X1193800Y-3581400D03*
G01X1231900Y-1727200D03*
G01X1231900Y-1536700D03*
G01X1231900Y-1346200D03*
G01X1252804Y-2768600D03*
G01X1387455Y-3578245D03*
G01X1435100Y-1727200D03*
G01X1435100Y-1346200D03*
G01X1450340Y-2768600D03*
G01X1473200Y-1536700D03*
G01X1473200Y-838200D03*
G01X1498600Y-3568700D03*
G01X1663700Y-457200D03*
G54D12*
G01X127000Y-4953000D03*
G01X127000Y-4699000D03*
G01X127000Y-4445000D03*
G01X127000Y-4191000D03*
G01X127000Y-3937000D03*
G01X127000Y-3683000D03*
G01X127000Y-3429000D03*
G01X127000Y-3175000D03*
G01X127000Y-2921000D03*
G01X127000Y-2667000D03*
G01X127000Y-2413000D03*
G01X127000Y-2159000D03*
G01X127000Y-1905000D03*
G01X127000Y-1651000D03*
G01X127000Y-1397000D03*
G01X127000Y-1143000D03*
G01X127000Y-889000D03*
G01X127000Y-635000D03*
G01X127000Y-381000D03*
G01X127000Y-127000D03*
G01X635000Y-3683000D03*
G01X635000Y-3429000D03*
G01X635000Y-3175000D03*
G01X635000Y-2921000D03*
G01X635000Y-2667000D03*
G01X1651000Y-1905000D03*
G01X1905000Y-4953000D03*
G01X1905000Y-4699000D03*
G01X1905000Y-4445000D03*
G01X1905000Y-4191000D03*
G01X1905000Y-3937000D03*
G01X1905000Y-3683000D03*
G01X1905000Y-3429000D03*
G01X1905000Y-3175000D03*
G01X1905000Y-2921000D03*
G01X1905000Y-2667000D03*
G01X1905000Y-2413000D03*
G01X1905000Y-2159000D03*
G01X1905000Y-1905000D03*
G01X1905000Y-1651000D03*
G01X1905000Y-1397000D03*
G01X1905000Y-1143000D03*
G01X1905000Y-889000D03*
G01X1905000Y-635000D03*
G01X1905000Y-381000D03*
G01X1905000Y-127000D03*
G04 Drill Drawing End*

M02*

