G04 Layer: BottomLayer*
G04 EasyEDA Pro v2.2.38.8, 2025-04-26 19:17:01*
G04 Gerber Generator version 0.3*
G04 Scale: 100 percent, Rotated: No, Reflected: No*
G04 Dimensions in millimeters*
G04 Leading zeros omitted, absolute positions, 4 integers and 5 decimals*
%FSLAX45Y45*%
%MOMM*%
%ADD10C,0.2032*%
%ADD11C,0.254*%
%ADD12C,1.6002*%
%ADD13C,2.1*%
%ADD14C,0.61*%
%ADD15C,0.5100*%
%ADD16C,0.508*%
G75*


G04 Copper Start*
G36*
G01X264160Y-5044186D02*
G01X264160Y-4762500D01*
G01X337494Y-4762500D01*
G01X339414Y-4785677D01*
G01X345123Y-4808222D01*
G01X354465Y-4829520D01*
G01X367186Y-4848990D01*
G01X382937Y-4866100D01*
G01X401290Y-4880385D01*
G01X421743Y-4891454D01*
G01X443740Y-4899005D01*
G01X466679Y-4902833D01*
G01X489936Y-4902833D01*
G01X512875Y-4899005D01*
G01X534872Y-4891454D01*
G01X555325Y-4880385D01*
G01X573678Y-4866100D01*
G01X589429Y-4848990D01*
G01X602149Y-4829520D01*
G01X611492Y-4808222D01*
G01X617201Y-4785677D01*
G01X619121Y-4762500D01*
G01X619121Y-4762500D01*
G01X687480Y-4762500D01*
G01X689401Y-4785677D01*
G01X695110Y-4808222D01*
G01X704452Y-4829520D01*
G01X717172Y-4848990D01*
G01X732923Y-4866100D01*
G01X751276Y-4880385D01*
G01X771730Y-4891454D01*
G01X793726Y-4899005D01*
G01X816666Y-4902833D01*
G01X839922Y-4902833D01*
G01X862862Y-4899005D01*
G01X884858Y-4891454D01*
G01X905312Y-4880385D01*
G01X923665Y-4866100D01*
G01X939416Y-4848990D01*
G01X952136Y-4829520D01*
G01X961478Y-4808222D01*
G01X967187Y-4785677D01*
G01X969108Y-4762500D01*
G01X969108Y-4762500D01*
G01X1037492Y-4762500D01*
G01X1039413Y-4785677D01*
G01X1045122Y-4808222D01*
G01X1054464Y-4829520D01*
G01X1067184Y-4848990D01*
G01X1082935Y-4866100D01*
G01X1101288Y-4880385D01*
G01X1121742Y-4891454D01*
G01X1143738Y-4899005D01*
G01X1166678Y-4902833D01*
G01X1189934Y-4902833D01*
G01X1212874Y-4899005D01*
G01X1234870Y-4891454D01*
G01X1255324Y-4880385D01*
G01X1273677Y-4866100D01*
G01X1289428Y-4848990D01*
G01X1302148Y-4829520D01*
G01X1311490Y-4808222D01*
G01X1317199Y-4785677D01*
G01X1319120Y-4762500D01*
G01X1319120Y-4762500D01*
G01X1387479Y-4762500D01*
G01X1389399Y-4785677D01*
G01X1395108Y-4808222D01*
G01X1404451Y-4829520D01*
G01X1417171Y-4848990D01*
G01X1432922Y-4866100D01*
G01X1451275Y-4880385D01*
G01X1471728Y-4891454D01*
G01X1493725Y-4899005D01*
G01X1516664Y-4902833D01*
G01X1539921Y-4902833D01*
G01X1562860Y-4899005D01*
G01X1584857Y-4891454D01*
G01X1605310Y-4880385D01*
G01X1623663Y-4866100D01*
G01X1639414Y-4848990D01*
G01X1652135Y-4829520D01*
G01X1661477Y-4808222D01*
G01X1667186Y-4785677D01*
G01X1669106Y-4762500D01*
G01X1667186Y-4739323D01*
G01X1661477Y-4716778D01*
G01X1652135Y-4695480D01*
G01X1639414Y-4676010D01*
G01X1623663Y-4658900D01*
G01X1605310Y-4644615D01*
G01X1584857Y-4633546D01*
G01X1562860Y-4625995D01*
G01X1539921Y-4622167D01*
G01X1516664Y-4622167D01*
G01X1493725Y-4625995D01*
G01X1471728Y-4633546D01*
G01X1451275Y-4644615D01*
G01X1432922Y-4658900D01*
G01X1417171Y-4676010D01*
G01X1404451Y-4695480D01*
G01X1395108Y-4716778D01*
G01X1389399Y-4739323D01*
G01X1387479Y-4762500D01*
G01X1387479Y-4762500D01*
G01X1319120Y-4762500D01*
G01X1317199Y-4739323D01*
G01X1311490Y-4716778D01*
G01X1302148Y-4695480D01*
G01X1289428Y-4676010D01*
G01X1273677Y-4658900D01*
G01X1255324Y-4644615D01*
G01X1234870Y-4633546D01*
G01X1212874Y-4625995D01*
G01X1189934Y-4622167D01*
G01X1166678Y-4622167D01*
G01X1143738Y-4625995D01*
G01X1121742Y-4633546D01*
G01X1101288Y-4644615D01*
G01X1082935Y-4658900D01*
G01X1067184Y-4676010D01*
G01X1054464Y-4695480D01*
G01X1045122Y-4716778D01*
G01X1039413Y-4739323D01*
G01X1037492Y-4762500D01*
G01X1037492Y-4762500D01*
G01X969108Y-4762500D01*
G01X967187Y-4739323D01*
G01X961478Y-4716778D01*
G01X952136Y-4695480D01*
G01X939416Y-4676010D01*
G01X923665Y-4658900D01*
G01X905312Y-4644615D01*
G01X884858Y-4633546D01*
G01X862862Y-4625995D01*
G01X839922Y-4622167D01*
G01X816666Y-4622167D01*
G01X793726Y-4625995D01*
G01X771730Y-4633546D01*
G01X751276Y-4644615D01*
G01X732923Y-4658900D01*
G01X717172Y-4676010D01*
G01X704452Y-4695480D01*
G01X695110Y-4716778D01*
G01X689401Y-4739323D01*
G01X687480Y-4762500D01*
G01X687480Y-4762500D01*
G01X619121Y-4762500D01*
G01X617201Y-4739323D01*
G01X611492Y-4716778D01*
G01X602149Y-4695480D01*
G01X589429Y-4676010D01*
G01X573678Y-4658900D01*
G01X555325Y-4644615D01*
G01X534872Y-4633546D01*
G01X512875Y-4625995D01*
G01X489936Y-4622167D01*
G01X466679Y-4622167D01*
G01X443740Y-4625995D01*
G01X421743Y-4633546D01*
G01X401290Y-4644615D01*
G01X382937Y-4658900D01*
G01X367186Y-4676010D01*
G01X354465Y-4695480D01*
G01X345123Y-4716778D01*
G01X339414Y-4739323D01*
G01X337494Y-4762500D01*
G01X337494Y-4762500D01*
G01X264160Y-4762500D01*
G01X264160Y-3683000D01*
G01X519176Y-3683000D01*
G01X521148Y-3704283D01*
G01X526997Y-3724840D01*
G01X536524Y-3743973D01*
G01X549405Y-3761030D01*
G01X565200Y-3775430D01*
G01X583373Y-3786681D01*
G01X603303Y-3794402D01*
G01X624313Y-3798330D01*
G01X645687Y-3798330D01*
G01X666697Y-3794402D01*
G01X686627Y-3786681D01*
G01X704800Y-3775430D01*
G01X720595Y-3761030D01*
G01X733476Y-3743973D01*
G01X743003Y-3724840D01*
G01X748852Y-3704283D01*
G01X750824Y-3683000D01*
G01X748852Y-3661717D01*
G01X743003Y-3641160D01*
G01X733476Y-3622027D01*
G01X720595Y-3604970D01*
G01X704800Y-3590570D01*
G01X686627Y-3579319D01*
G01X666697Y-3571598D01*
G01X648537Y-3568203D01*
G01X1432288Y-3568203D01*
G01X1434093Y-3584073D01*
G01X1439640Y-3599052D01*
G01X1448608Y-3612270D01*
G01X1460476Y-3622960D01*
G01X1474557Y-3630502D01*
G01X1490032Y-3634458D01*
G01X1506004Y-3634599D01*
G01X1521547Y-3630917D01*
G01X1535758Y-3623626D01*
G01X1547814Y-3613147D01*
G01X1557014Y-3600090D01*
G01X1562826Y-3585212D01*
G01X1564911Y-3569375D01*
G01X1570574Y-3556881D01*
G01X1572514Y-3543300D01*
G01X1572514Y-2306095D01*
G01X1685305Y-2193305D01*
G01X1685305Y-2193305D01*
G01X1693014Y-2183257D01*
G01X1697861Y-2171556D01*
G01X1699514Y-2159000D01*
G01X1699514Y-2010174D01*
G01X1717619Y-1999748D01*
G01X1733556Y-1986238D01*
G01X1746807Y-1970086D01*
G01X1756941Y-1951816D01*
G01X1763628Y-1932022D01*
G01X1766650Y-1911349D01*
G01X1765909Y-1890470D01*
G01X1761429Y-1870063D01*
G01X1753356Y-1850793D01*
G01X1741953Y-1833287D01*
G01X1727591Y-1818115D01*
G01X1710736Y-1805769D01*
G01X1691938Y-1796652D01*
G01X1671807Y-1791060D01*
G01X1651000Y-1789176D01*
G01X1630193Y-1791060D01*
G01X1610062Y-1796652D01*
G01X1591264Y-1805769D01*
G01X1574409Y-1818115D01*
G01X1560047Y-1833287D01*
G01X1548644Y-1850793D01*
G01X1540571Y-1870063D01*
G01X1536091Y-1890470D01*
G01X1535350Y-1911349D01*
G01X1538372Y-1932022D01*
G01X1545059Y-1951816D01*
G01X1555193Y-1970086D01*
G01X1568444Y-1986238D01*
G01X1584381Y-1999748D01*
G01X1602486Y-2010174D01*
G01X1602486Y-2138905D01*
G01X1489695Y-2251695D01*
G01X1481986Y-2261743D01*
G01X1477139Y-2273444D01*
G01X1475486Y-2286000D01*
G01X1475486Y-3506545D01*
G01X1461294Y-3513875D01*
G01X1449267Y-3524385D01*
G01X1440102Y-3537467D01*
G01X1434330Y-3552361D01*
G01X1432288Y-3568203D01*
G01X648537Y-3568203D01*
G01X645687Y-3567670D01*
G01X624313Y-3567670D01*
G01X603303Y-3571598D01*
G01X583373Y-3579319D01*
G01X565200Y-3590570D01*
G01X549405Y-3604970D01*
G01X536524Y-3622027D01*
G01X526997Y-3641160D01*
G01X521148Y-3661717D01*
G01X519176Y-3683000D01*
G01X519176Y-3683000D01*
G01X264160Y-3683000D01*
G01X264160Y-3429000D01*
G01X519176Y-3429000D01*
G01X521148Y-3450283D01*
G01X526997Y-3470840D01*
G01X536524Y-3489973D01*
G01X549405Y-3507030D01*
G01X565200Y-3521430D01*
G01X583373Y-3532681D01*
G01X603303Y-3540402D01*
G01X624313Y-3544330D01*
G01X645687Y-3544330D01*
G01X666697Y-3540402D01*
G01X686627Y-3532681D01*
G01X704800Y-3521430D01*
G01X720595Y-3507030D01*
G01X733476Y-3489973D01*
G01X743003Y-3470840D01*
G01X748852Y-3450283D01*
G01X750824Y-3429000D01*
G01X748852Y-3407717D01*
G01X743003Y-3387160D01*
G01X733476Y-3368027D01*
G01X720595Y-3350970D01*
G01X704800Y-3336570D01*
G01X686627Y-3325319D01*
G01X666697Y-3317598D01*
G01X645687Y-3313670D01*
G01X624313Y-3313670D01*
G01X603303Y-3317598D01*
G01X583373Y-3325319D01*
G01X565200Y-3336570D01*
G01X549405Y-3350970D01*
G01X536524Y-3368027D01*
G01X526997Y-3387160D01*
G01X521148Y-3407717D01*
G01X519176Y-3429000D01*
G01X519176Y-3429000D01*
G01X264160Y-3429000D01*
G01X264160Y-3175000D01*
G01X519176Y-3175000D01*
G01X521148Y-3196283D01*
G01X526997Y-3216840D01*
G01X536524Y-3235973D01*
G01X549405Y-3253030D01*
G01X565200Y-3267430D01*
G01X583373Y-3278681D01*
G01X603303Y-3286402D01*
G01X624313Y-3290330D01*
G01X645687Y-3290330D01*
G01X666697Y-3286402D01*
G01X686627Y-3278681D01*
G01X704800Y-3267430D01*
G01X720595Y-3253030D01*
G01X733476Y-3235973D01*
G01X743003Y-3216840D01*
G01X748852Y-3196283D01*
G01X750824Y-3175000D01*
G01X748852Y-3153717D01*
G01X743003Y-3133160D01*
G01X733476Y-3114027D01*
G01X720595Y-3096970D01*
G01X704800Y-3082570D01*
G01X686627Y-3071319D01*
G01X666697Y-3063598D01*
G01X645687Y-3059670D01*
G01X624313Y-3059670D01*
G01X603303Y-3063598D01*
G01X583373Y-3071319D01*
G01X565200Y-3082570D01*
G01X549405Y-3096970D01*
G01X536524Y-3114027D01*
G01X526997Y-3133160D01*
G01X521148Y-3153717D01*
G01X519176Y-3175000D01*
G01X519176Y-3175000D01*
G01X264160Y-3175000D01*
G01X264160Y-2921000D01*
G01X519176Y-2921000D01*
G01X521148Y-2942283D01*
G01X526997Y-2962840D01*
G01X536524Y-2981973D01*
G01X549405Y-2999030D01*
G01X565200Y-3013430D01*
G01X583373Y-3024681D01*
G01X603303Y-3032402D01*
G01X624313Y-3036330D01*
G01X645687Y-3036330D01*
G01X666697Y-3032402D01*
G01X686627Y-3024681D01*
G01X704800Y-3013430D01*
G01X720595Y-2999030D01*
G01X733476Y-2981973D01*
G01X743003Y-2962840D01*
G01X748852Y-2942283D01*
G01X750824Y-2921000D01*
G01X748852Y-2899717D01*
G01X743003Y-2879160D01*
G01X733476Y-2860027D01*
G01X720595Y-2842970D01*
G01X704800Y-2828570D01*
G01X686627Y-2817319D01*
G01X666697Y-2809598D01*
G01X645687Y-2805670D01*
G01X624313Y-2805670D01*
G01X603303Y-2809598D01*
G01X583373Y-2817319D01*
G01X565200Y-2828570D01*
G01X549405Y-2842970D01*
G01X536524Y-2860027D01*
G01X526997Y-2879160D01*
G01X521148Y-2899717D01*
G01X519176Y-2921000D01*
G01X519176Y-2921000D01*
G01X264160Y-2921000D01*
G01X264160Y-2667000D01*
G01X519176Y-2667000D01*
G01X521148Y-2688283D01*
G01X526997Y-2708840D01*
G01X536524Y-2727973D01*
G01X549405Y-2745030D01*
G01X565200Y-2759430D01*
G01X583373Y-2770681D01*
G01X603303Y-2778402D01*
G01X624313Y-2782330D01*
G01X645687Y-2782330D01*
G01X666697Y-2778402D01*
G01X686627Y-2770681D01*
G01X704800Y-2759430D01*
G01X720595Y-2745030D01*
G01X733476Y-2727973D01*
G01X743003Y-2708840D01*
G01X748852Y-2688283D01*
G01X750824Y-2667000D01*
G01X748852Y-2645717D01*
G01X743003Y-2625160D01*
G01X733476Y-2606027D01*
G01X720595Y-2588970D01*
G01X704800Y-2574570D01*
G01X686627Y-2563319D01*
G01X666697Y-2555598D01*
G01X645687Y-2551670D01*
G01X624313Y-2551670D01*
G01X603303Y-2555598D01*
G01X583373Y-2563319D01*
G01X565200Y-2574570D01*
G01X549405Y-2588970D01*
G01X536524Y-2606027D01*
G01X526997Y-2625160D01*
G01X521148Y-2645717D01*
G01X519176Y-2667000D01*
G01X519176Y-2667000D01*
G01X264160Y-2667000D01*
G01X264160Y-317500D01*
G01X362894Y-317500D01*
G01X364814Y-340677D01*
G01X370523Y-363222D01*
G01X379865Y-384520D01*
G01X392586Y-403990D01*
G01X408337Y-421100D01*
G01X426690Y-435385D01*
G01X447143Y-446454D01*
G01X469140Y-454005D01*
G01X492079Y-457833D01*
G01X515336Y-457833D01*
G01X538275Y-454005D01*
G01X560272Y-446454D01*
G01X580725Y-435385D01*
G01X599078Y-421100D01*
G01X614829Y-403990D01*
G01X627549Y-384520D01*
G01X636892Y-363222D01*
G01X642601Y-340677D01*
G01X644521Y-317500D01*
G01X644521Y-317500D01*
G01X644521Y-317500D01*
G01X712880Y-317500D01*
G01X714801Y-340677D01*
G01X720510Y-363222D01*
G01X729852Y-384520D01*
G01X742572Y-403990D01*
G01X758323Y-421100D01*
G01X776676Y-435385D01*
G01X797130Y-446454D01*
G01X819126Y-454005D01*
G01X842066Y-457833D01*
G01X865322Y-457833D01*
G01X888262Y-454005D01*
G01X910258Y-446454D01*
G01X930712Y-435385D01*
G01X949065Y-421100D01*
G01X964816Y-403990D01*
G01X977536Y-384520D01*
G01X986878Y-363222D01*
G01X992587Y-340677D01*
G01X994508Y-317500D01*
G01X994508Y-317500D01*
G01X994508Y-317500D01*
G01X1062892Y-317500D01*
G01X1064813Y-340677D01*
G01X1070522Y-363222D01*
G01X1079864Y-384520D01*
G01X1092584Y-403990D01*
G01X1108335Y-421100D01*
G01X1126688Y-435385D01*
G01X1147142Y-446454D01*
G01X1169138Y-454005D01*
G01X1192078Y-457833D01*
G01X1215334Y-457833D01*
G01X1238274Y-454005D01*
G01X1260270Y-446454D01*
G01X1280724Y-435385D01*
G01X1299077Y-421100D01*
G01X1314828Y-403990D01*
G01X1327548Y-384520D01*
G01X1336890Y-363222D01*
G01X1342599Y-340677D01*
G01X1344520Y-317500D01*
G01X1344520Y-317500D01*
G01X1344520Y-317500D01*
G01X1412879Y-317500D01*
G01X1414799Y-340677D01*
G01X1420508Y-363222D01*
G01X1429851Y-384520D01*
G01X1442571Y-403990D01*
G01X1458322Y-421100D01*
G01X1476675Y-435385D01*
G01X1497128Y-446454D01*
G01X1519125Y-454005D01*
G01X1542064Y-457833D01*
G01X1565321Y-457833D01*
G01X1588260Y-454005D01*
G01X1610257Y-446454D01*
G01X1630710Y-435385D01*
G01X1649063Y-421100D01*
G01X1664814Y-403990D01*
G01X1677535Y-384520D01*
G01X1686877Y-363222D01*
G01X1692586Y-340677D01*
G01X1694506Y-317500D01*
G01X1694506Y-317500D01*
G01X1692586Y-294323D01*
G01X1686877Y-271778D01*
G01X1677535Y-250480D01*
G01X1664814Y-231010D01*
G01X1649063Y-213900D01*
G01X1630710Y-199615D01*
G01X1610257Y-188546D01*
G01X1588260Y-180995D01*
G01X1565321Y-177167D01*
G01X1542064Y-177167D01*
G01X1519125Y-180995D01*
G01X1497128Y-188546D01*
G01X1476675Y-199615D01*
G01X1458322Y-213900D01*
G01X1442571Y-231010D01*
G01X1429851Y-250480D01*
G01X1420508Y-271778D01*
G01X1414799Y-294323D01*
G01X1412879Y-317500D01*
G01X1344520Y-317500D01*
G01X1342599Y-294323D01*
G01X1336890Y-271778D01*
G01X1327548Y-250480D01*
G01X1314828Y-231010D01*
G01X1299077Y-213900D01*
G01X1280724Y-199615D01*
G01X1260270Y-188546D01*
G01X1238274Y-180995D01*
G01X1215334Y-177167D01*
G01X1192078Y-177167D01*
G01X1169138Y-180995D01*
G01X1147142Y-188546D01*
G01X1126688Y-199615D01*
G01X1108335Y-213900D01*
G01X1092584Y-231010D01*
G01X1079864Y-250480D01*
G01X1070522Y-271778D01*
G01X1064813Y-294323D01*
G01X1062892Y-317500D01*
G01X994508Y-317500D01*
G01X992587Y-294323D01*
G01X986878Y-271778D01*
G01X977536Y-250480D01*
G01X964816Y-231010D01*
G01X949065Y-213900D01*
G01X930712Y-199615D01*
G01X910258Y-188546D01*
G01X888262Y-180995D01*
G01X865322Y-177167D01*
G01X842066Y-177167D01*
G01X819126Y-180995D01*
G01X797130Y-188546D01*
G01X776676Y-199615D01*
G01X758323Y-213900D01*
G01X742572Y-231010D01*
G01X729852Y-250480D01*
G01X720510Y-271778D01*
G01X714801Y-294323D01*
G01X712880Y-317500D01*
G01X644521Y-317500D01*
G01X642601Y-294323D01*
G01X636892Y-271778D01*
G01X627549Y-250480D01*
G01X614829Y-231010D01*
G01X599078Y-213900D01*
G01X580725Y-199615D01*
G01X560272Y-188546D01*
G01X538275Y-180995D01*
G01X515336Y-177167D01*
G01X492079Y-177167D01*
G01X469140Y-180995D01*
G01X447143Y-188546D01*
G01X426690Y-199615D01*
G01X408337Y-213900D01*
G01X392586Y-231010D01*
G01X379865Y-250480D01*
G01X370523Y-271778D01*
G01X364814Y-294323D01*
G01X362894Y-317500D01*
G01X264160Y-317500D01*
G01X264160Y-35814D01*
G01X1767840Y-35814D01*
G01X1767840Y-5044186D01*
G01X264160Y-5044186D01*
G37*
G54D10*
G01X264160Y-5044186D02*
G01X264160Y-35814D01*
G01X1767840Y-35814D01*
G01X1767840Y-5044186D01*
G01X264160Y-5044186D01*
G01X337494Y-4762500D02*
G03X619121Y-4762500I140814J0D01*
G03X337494Y-4762500I-140814J0D01*
G01X644521Y-317500D02*
G03X362894Y-317500I-140814J0D01*
G03X644521Y-317500I140814J0D01*
G01X519176Y-2667000D02*
G03X750824Y-2667000I115824J0D01*
G03X519176Y-2667000I-115824J0D01*
G01X519176Y-2921000D02*
G03X750824Y-2921000I115824J0D01*
G03X519176Y-2921000I-115824J0D01*
G01X519176Y-3175000D02*
G03X750824Y-3175000I115824J0D01*
G03X519176Y-3175000I-115824J0D01*
G01X519176Y-3429000D02*
G03X750824Y-3429000I115824J0D01*
G03X519176Y-3429000I-115824J0D01*
G01X519176Y-3683000D02*
G03X750824Y-3683000I115824J0D01*
G03X519176Y-3683000I-115824J0D01*
G01X687480Y-4762500D02*
G03X969108Y-4762500I140814J0D01*
G03X687480Y-4762500I-140814J0D01*
G01X994508Y-317500D02*
G03X712880Y-317500I-140814J0D01*
G03X994508Y-317500I140814J0D01*
G01X1037492Y-4762500D02*
G03X1319120Y-4762500I140814J0D01*
G03X1037492Y-4762500I-140814J0D01*
G01X1344520Y-317500D02*
G03X1062892Y-317500I-140814J0D01*
G03X1344520Y-317500I140814J0D01*
G01X1387479Y-4762500D02*
G03X1669106Y-4762500I140814J0D01*
G03X1387479Y-4762500I-140814J0D01*
G01X1694506Y-317500D02*
G03X1412879Y-317500I-140814J0D01*
G03X1694506Y-317500I140814J0D01*
G01X1685305Y-2193305D02*
G03X1699514Y-2159000I-34305J34305D01*
G01X1699514Y-2010174D01*
G03X1651000Y-1789176I-48514J105174D01*
G03X1602486Y-2010174I0J-115824D01*
G01X1602486Y-2138905D01*
G01X1489695Y-2251695D01*
G03X1475486Y-2286000I34305J-34305D01*
G01X1475486Y-3506545D01*
G03X1460476Y-3622960I23114J-62155D01*
G03X1564911Y-3569375I38124J54260D01*
G03X1572514Y-3543300I-40911J26075D01*
G01X1572514Y-2306095D01*
G01X1685305Y-2193305D01*
G54D11*
G01X555244Y-3175000D02*
G01X529336Y-3175000D01*
G01X714756Y-3175000D02*
G01X740664Y-3175000D01*
G01X635000Y-3095244D02*
G01X635000Y-3069336D01*
G01X635000Y-3254756D02*
G01X635000Y-3280664D01*
G01X723548Y-4762500D02*
G01X697640Y-4762500D01*
G01X933040Y-4762500D02*
G01X958948Y-4762500D01*
G01X828294Y-4657754D02*
G01X828294Y-4631846D01*
G01X828294Y-4867246D02*
G01X828294Y-4893154D01*
G01X958440Y-317500D02*
G01X984348Y-317500D01*
G01X748948Y-317500D02*
G01X723040Y-317500D01*
G01X853694Y-422246D02*
G01X853694Y-448154D01*
G01X853694Y-212754D02*
G01X853694Y-186846D01*
G04 Copper End*

G04 Pad Start*
G54D12*
G01X127000Y-127000D03*
G01X127000Y-381000D03*
G01X127000Y-635000D03*
G01X127000Y-889000D03*
G01X127000Y-1143000D03*
G01X127000Y-1397000D03*
G01X127000Y-1651000D03*
G01X127000Y-1905000D03*
G01X127000Y-2159000D03*
G01X127000Y-2413000D03*
G01X1905000Y-127000D03*
G01X1905000Y-381000D03*
G01X1905000Y-635000D03*
G01X1905000Y-889000D03*
G01X1905000Y-1143000D03*
G01X1905000Y-1397000D03*
G01X1905000Y-2413000D03*
G01X1905000Y-2159000D03*
G01X1905000Y-1905000D03*
G01X1905000Y-1651000D03*
G01X127000Y-2667000D03*
G01X127000Y-2921000D03*
G01X127000Y-3175000D03*
G01X127000Y-3429000D03*
G01X127000Y-3683000D03*
G01X127000Y-3937000D03*
G01X127000Y-4953000D03*
G01X127000Y-4699000D03*
G01X127000Y-4445000D03*
G01X127000Y-4191000D03*
G01X1905000Y-2667000D03*
G01X1905000Y-4191000D03*
G01X1905000Y-4445000D03*
G01X1905000Y-4699000D03*
G01X1905000Y-4953000D03*
G01X1905000Y-3937000D03*
G01X1905000Y-3683000D03*
G01X1905000Y-3429000D03*
G01X1905000Y-3175000D03*
G01X1905000Y-2921000D03*
G01X635000Y-2921000D03*
G01X635000Y-2667000D03*
G01X635000Y-3429000D03*
G01X635000Y-3683000D03*
G01X635000Y-3175000D03*
G01X1651000Y-1905000D03*
G54D13*
G01X1553693Y-317500D03*
G01X1203706Y-317500D03*
G01X853694Y-317500D03*
G01X503707Y-317500D03*
G01X478307Y-4762500D03*
G01X828294Y-4762500D03*
G01X1178306Y-4762500D03*
G01X1528293Y-4762500D03*
G04 Pad End*

G04 Via Start*
G54D14*
G01X1252804Y-2768600D03*
G01X1054830Y-2768600D03*
G01X1450340Y-2768600D03*
G01X1193800Y-3581400D03*
G01X1387455Y-3578245D03*
G01X1231900Y-1727200D03*
G01X1028700Y-1727200D03*
G01X1016000Y-1346200D03*
G01X1231900Y-1346200D03*
G01X1498600Y-3568700D03*
G01X1435100Y-1346200D03*
G01X1435100Y-1727200D03*
G01X1028700Y-800100D03*
G01X1473200Y-838200D03*
G01X1663700Y-457200D03*
G01X673100Y-927100D03*
G01X863600Y-1905000D03*
G01X635000Y-3556000D03*
G01X635000Y-2794000D03*
G01X508000Y-1905000D03*
G01X1231900Y-1536700D03*
G01X1473200Y-1536700D03*
G01X1003300Y-1536700D03*
G04 Via End*

G04 Track Start*
G54D16*
G01X127000Y-4445000D02*
G01X317500Y-4445000D01*
G01X1905000Y-3175000D02*
G01X1739900Y-3175000D01*
G01X1905000Y-635000D02*
G01X1727200Y-635000D01*
G01X127000Y-635000D02*
G01X317500Y-635000D01*
G01X127000Y-1905000D02*
G01X330200Y-1905000D01*
G01X127000Y-3175000D02*
G01X317500Y-3175000D01*
G01X1905000Y-4445000D02*
G01X1739900Y-4445000D01*
G54D11*
G01X1524000Y-3543300D02*
G01X1498600Y-3568700D01*
G01X1524000Y-2286000D02*
G01X1524000Y-3543300D01*
G01X1651000Y-1905000D02*
G01X1651000Y-2159000D01*
G01X1524000Y-2286000D01*
G01X1903540Y-1904281D02*
G01X1863261Y-1904281D01*
G01X1862542Y-1905000D01*
G01X1778000Y-1905000D01*
G04 Track End*

M02*

