G04 Layer: DrillDrawingLayer*
G04 EasyEDA Pro v2.2.39.2, 2025-05-20 15:29:26*
G04 Gerber Generator version 0.3*
G04 Scale: 100 percent, Rotated: No, Reflected: No*
G04 Dimensions in millimeters*
G04 Leading zeros omitted, absolute positions, 4 integers and 5 decimals*
G04 Generated by one-click*
%FSLAX45Y45*%
%MOMM*%
%AMIconRect*4,1,4,0.2,-0.2,-0.2,-0.2,-0.2,0.2,0.2,0.2,0.2,-0.2,0*4,0,4,0.166667,-0.166667,0.166667,0.166667,-0.166667,0.166667,-0.166667,-0.166667,0.166667,-0.166667,0*%
%AMIconTriangle*4,1,3,-0.242567,0.171767,0.242567,0.171767,0,-0.2706,-0.242567,0.171767,0*4,0,3,-0.189767,0.1386,0,-0.1953,0.190167,0.1386,-0.189767,0.1386,0*%
%ADD10IconRect*%
%ADD11C,0.44X0.373333*%
%ADD12IconTriangle*%
G75*


G04 Drill Drawing Start*
G54D10*
G01X478300Y-4762500D03*
G01X491000Y-317500D03*
G01X828299Y-4762500D03*
G01X841002Y-317500D03*
G01X1178298Y-4762500D03*
G01X1191001Y-317500D03*
G01X1528300Y-4762500D03*
G01X1541000Y-317500D03*
G54D11*
G01X381000Y-2286000D03*
G01X381000Y-1524000D03*
G01X533400Y-3953931D03*
G01X533400Y-3721100D03*
G01X533400Y-3474474D03*
G01X533400Y-3189125D03*
G01X533400Y-2785680D03*
G01X542999Y-4435889D03*
G01X807307Y-4479651D03*
G01X808450Y-909320D03*
G01X947420Y-1722120D03*
G01X975925Y-3418275D03*
G01X977900Y-4279900D03*
G01X1006424Y-909320D03*
G01X1014025Y-3608775D03*
G01X1014025Y-3227775D03*
G01X1135349Y-4573506D03*
G01X1141075Y-1718965D03*
G01X1203960Y-909320D03*
G01X1217225Y-3608775D03*
G01X1217225Y-3418275D03*
G01X1217225Y-3227775D03*
G01X1420425Y-3227775D03*
G01X1429649Y-4279900D03*
G01X1433125Y-3608775D03*
G01X1445825Y-3418275D03*
G01X1524000Y-1295400D03*
G01X1663700Y-3633465D03*
G01X1663700Y-3567857D03*
G54D12*
G01X127000Y-4953000D03*
G01X127000Y-4699000D03*
G01X127000Y-4445000D03*
G01X127000Y-4191000D03*
G01X127000Y-3937000D03*
G01X127000Y-3683000D03*
G01X127000Y-3429000D03*
G01X127000Y-3175000D03*
G01X127000Y-2921000D03*
G01X127000Y-2667000D03*
G01X127000Y-2413000D03*
G01X127000Y-2159000D03*
G01X127000Y-1905000D03*
G01X127000Y-1651000D03*
G01X127000Y-1397000D03*
G01X127000Y-1143000D03*
G01X127000Y-889000D03*
G01X127000Y-635000D03*
G01X127000Y-381000D03*
G01X127000Y-127000D03*
G01X381000Y-2413000D03*
G01X381000Y-2159000D03*
G01X381000Y-1905000D03*
G01X381000Y-1651000D03*
G01X381000Y-1397000D03*
G01X1397000Y-1905000D03*
G01X1905000Y-4953000D03*
G01X1905000Y-4699000D03*
G01X1905000Y-4445000D03*
G01X1905000Y-4191000D03*
G01X1905000Y-3937000D03*
G01X1905000Y-3683000D03*
G01X1905000Y-3429000D03*
G01X1905000Y-3175000D03*
G01X1905000Y-2921000D03*
G01X1905000Y-2667000D03*
G01X1905000Y-2413000D03*
G01X1905000Y-2159000D03*
G01X1905000Y-1905000D03*
G01X1905000Y-1651000D03*
G01X1905000Y-1397000D03*
G01X1905000Y-1143000D03*
G01X1905000Y-889000D03*
G01X1905000Y-635000D03*
G01X1905000Y-381000D03*
G01X1905000Y-127000D03*
G04 Drill Drawing End*

M02*

