G04 Layer: TopPasteMaskLayer*
G04 EasyEDA Pro v2.2.38.8, 2025-04-26 19:17:01*
G04 Gerber Generator version 0.3*
G04 Scale: 100 percent, Rotated: No, Reflected: No*
G04 Dimensions in millimeters*
G04 Leading zeros omitted, absolute positions, 4 integers and 5 decimals*
%FSLAX45Y45*%
%MOMM*%
%ADD10R,1.2X0.55001*%
%ADD11R,0.4X1.7*%
%ADD12R,1.6X3.49999*%
%ADD13R,0.8X0.9*%
G75*


G04 PolygonModel Start*
G36*
G01X1568600Y-1661701D02*
G01X1568600Y-1592600D01*
G01X1578600Y-1582600D01*
G01X1614190Y-1582600D01*
G01X1624190Y-1572600D01*
G01X1624190Y-1500800D01*
G01X1614190Y-1490800D01*
G01X1578600Y-1490800D01*
G01X1568600Y-1480800D01*
G01X1568600Y-1411699D01*
G01X1578600Y-1401699D01*
G01X1722100Y-1401699D01*
G01X1732100Y-1411699D01*
G01X1732100Y-1661701D01*
G01X1722100Y-1671701D01*
G01X1578600Y-1671701D01*
G01X1568600Y-1661701D01*
G37*
G36*
G01X1428600Y-1661701D02*
G01X1428600Y-1592600D01*
G01X1418600Y-1582600D01*
G01X1383010Y-1582600D01*
G01X1373010Y-1572600D01*
G01X1373010Y-1500800D01*
G01X1383010Y-1490800D01*
G01X1418600Y-1490800D01*
G01X1428600Y-1480800D01*
G01X1428600Y-1411699D01*
G01X1418600Y-1401699D01*
G01X1275100Y-1401699D01*
G01X1265100Y-1411699D01*
G01X1265100Y-1661701D01*
G01X1275100Y-1671701D01*
G01X1418600Y-1671701D01*
G01X1428600Y-1661701D01*
G37*
G36*
G01X895200Y-1411699D02*
G01X895200Y-1480800D01*
G01X885200Y-1490800D01*
G01X849610Y-1490800D01*
G01X839610Y-1500800D01*
G01X839610Y-1572600D01*
G01X849610Y-1582600D01*
G01X885200Y-1582600D01*
G01X895200Y-1592600D01*
G01X895200Y-1661701D01*
G01X885200Y-1671701D01*
G01X741700Y-1671701D01*
G01X731700Y-1661701D01*
G01X731700Y-1411699D01*
G01X741700Y-1401699D01*
G01X885200Y-1401699D01*
G01X895200Y-1411699D01*
G37*
G36*
G01X1035200Y-1411699D02*
G01X1035200Y-1480800D01*
G01X1045200Y-1490800D01*
G01X1080790Y-1490800D01*
G01X1090790Y-1500800D01*
G01X1090790Y-1572600D01*
G01X1080790Y-1582600D01*
G01X1045200Y-1582600D01*
G01X1035200Y-1592600D01*
G01X1035200Y-1661701D01*
G01X1045200Y-1671701D01*
G01X1188700Y-1671701D01*
G01X1198700Y-1661701D01*
G01X1198700Y-1411699D01*
G01X1188700Y-1401699D01*
G01X1045200Y-1401699D01*
G01X1035200Y-1411699D01*
G37*

G04 Pad Start*
G54D10*
G01X1123300Y-1111504D03*
G01X1123300Y-1301496D03*
G01X883300Y-1301496D03*
G01X883300Y-1206500D03*
G01X883300Y-1111504D03*
G01X1123300Y-1206500D03*
G54D11*
G01X1452296Y-2894990D03*
G01X1387297Y-2894990D03*
G01X1322299Y-2894990D03*
G01X1257300Y-2894990D03*
G01X1192301Y-2894990D03*
G01X1127303Y-2894990D03*
G01X1062304Y-2894990D03*
G01X1062304Y-3455010D03*
G01X1127303Y-3455010D03*
G01X1192301Y-3455010D03*
G01X1257300Y-3455010D03*
G01X1322299Y-3455010D03*
G01X1387297Y-3455010D03*
G01X1452296Y-3455010D03*
G54D12*
G01X1658595Y-1104900D03*
G01X1338605Y-1104900D03*
G54D13*
G01X1034898Y-977900D03*
G01X1174902Y-977900D03*
G04 Pad End*

M02*

