G04 Layer: BottomSilkscreenLayer*
G04 EasyEDA Pro v2.2.38.8, 2025-04-26 19:17:01*
G04 Gerber Generator version 0.3*
G04 Scale: 100 percent, Rotated: No, Reflected: No*
G04 Dimensions in millimeters*
G04 Leading zeros omitted, absolute positions, 4 integers and 5 decimals*
%FSLAX45Y45*%
%MOMM*%
%ADD10C,0.2032*%
%ADD11C,0.1524*%
%ADD12C,0.1016*%
G75*


G04 Text Start*
G54D10*
G01X1615440Y-547370D02*
G01X1615440Y-700786D01*
G01X1615440Y-547370D02*
G01X1549654Y-547370D01*
G01X1527810Y-554736D01*
G01X1520444Y-562102D01*
G01X1513078Y-576580D01*
G01X1513078Y-598424D01*
G01X1520444Y-613156D01*
G01X1527810Y-620522D01*
G01X1549654Y-627634D01*
G01X1615440Y-627634D01*
G01X1457706Y-547370D02*
G01X1450340Y-554736D01*
G01X1442974Y-547370D01*
G01X1450340Y-540004D01*
G01X1457706Y-547370D01*
G01X1450340Y-598424D02*
G01X1450340Y-700786D01*
G01X1299972Y-620522D02*
G01X1314450Y-605790D01*
G01X1329182Y-598424D01*
G01X1351026Y-598424D01*
G01X1365758Y-605790D01*
G01X1380236Y-620522D01*
G01X1387602Y-642366D01*
G01X1387602Y-656844D01*
G01X1380236Y-678942D01*
G01X1365758Y-693420D01*
G01X1351026Y-700786D01*
G01X1329182Y-700786D01*
G01X1314450Y-693420D01*
G01X1299972Y-678942D01*
G01X1208024Y-598424D02*
G01X1222756Y-605790D01*
G01X1237234Y-620522D01*
G01X1244600Y-642366D01*
G01X1244600Y-656844D01*
G01X1237234Y-678942D01*
G01X1222756Y-693420D01*
G01X1208024Y-700786D01*
G01X1186180Y-700786D01*
G01X1171448Y-693420D01*
G01X1156970Y-678942D01*
G01X1149604Y-656844D01*
G01X1149604Y-642366D01*
G01X1156970Y-620522D01*
G01X1171448Y-605790D01*
G01X1186180Y-598424D01*
G01X1208024Y-598424D01*
G01X1094232Y-547370D02*
G01X1094232Y-700786D01*
G01X1094232Y-700786D02*
G01X1006602Y-700786D01*
G01X951230Y-547370D02*
G01X951230Y-700786D01*
G01X951230Y-547370D02*
G01X856234Y-547370D01*
G01X951230Y-620522D02*
G01X892810Y-620522D01*
G01X951230Y-700786D02*
G01X856234Y-700786D01*
G01X800862Y-547370D02*
G01X800862Y-700786D01*
G01X800862Y-547370D02*
G01X749808Y-547370D01*
G01X727710Y-554736D01*
G01X713232Y-569214D01*
G01X705866Y-583946D01*
G01X698500Y-605790D01*
G01X698500Y-642366D01*
G01X705866Y-664210D01*
G01X713232Y-678942D01*
G01X727710Y-693420D01*
G01X749808Y-700786D01*
G01X800862Y-700786D01*
G54D11*
G01X1571244Y-990346D02*
G01X1571244Y-1041654D01*
G01X1592580Y-1003046D02*
G01X1549654Y-1028954D01*
G01X1549654Y-1003046D02*
G01X1592580Y-1028954D01*
G01X1366266Y-964692D02*
G01X1409192Y-964692D01*
G01X1413510Y-1003046D01*
G01X1409192Y-998982D01*
G01X1396492Y-994664D01*
G01X1383538Y-994664D01*
G01X1370584Y-998982D01*
G01X1362202Y-1007364D01*
G01X1357884Y-1020318D01*
G01X1357884Y-1028954D01*
G01X1362202Y-1041654D01*
G01X1370584Y-1050290D01*
G01X1383538Y-1054608D01*
G01X1396492Y-1054608D01*
G01X1409192Y-1050290D01*
G01X1413510Y-1045972D01*
G01X1417828Y-1037336D01*
G01X1322070Y-1016000D02*
G01X1244854Y-1016000D01*
G01X1200404Y-964692D02*
G01X1153414Y-964692D01*
G01X1179068Y-998982D01*
G01X1166114Y-998982D01*
G01X1157478Y-1003046D01*
G01X1153414Y-1007364D01*
G01X1149096Y-1020318D01*
G01X1149096Y-1028954D01*
G01X1153414Y-1041654D01*
G01X1161796Y-1050290D01*
G01X1174750Y-1054608D01*
G01X1187704Y-1054608D01*
G01X1200404Y-1050290D01*
G01X1204722Y-1045972D01*
G01X1209040Y-1037336D01*
G01X1108964Y-986028D02*
G01X1108964Y-981710D01*
G01X1104646Y-973074D01*
G01X1100328Y-968756D01*
G01X1091946Y-964692D01*
G01X1074674Y-964692D01*
G01X1066038Y-968756D01*
G01X1061720Y-973074D01*
G01X1057656Y-981710D01*
G01X1057656Y-990346D01*
G01X1061720Y-998982D01*
G01X1070356Y-1011682D01*
G01X1113282Y-1054608D01*
G01X1053338Y-1054608D01*
G01X1017524Y-964692D02*
G01X983234Y-1054608D01*
G01X948944Y-964692D02*
G01X983234Y-1054608D01*
G01X817118Y-994664D02*
G01X817118Y-1084580D01*
G01X817118Y-1007364D02*
G01X808482Y-998982D01*
G01X799846Y-994664D01*
G01X787146Y-994664D01*
G01X778510Y-998982D01*
G01X769874Y-1007364D01*
G01X765556Y-1020318D01*
G01X765556Y-1028954D01*
G01X769874Y-1041654D01*
G01X778510Y-1050290D01*
G01X787146Y-1054608D01*
G01X799846Y-1054608D01*
G01X808482Y-1050290D01*
G01X817118Y-1041654D01*
G01X708406Y-994664D02*
G01X716788Y-998982D01*
G01X725424Y-1007364D01*
G01X729742Y-1020318D01*
G01X729742Y-1028954D01*
G01X725424Y-1041654D01*
G01X716788Y-1050290D01*
G01X708406Y-1054608D01*
G01X695452Y-1054608D01*
G01X686816Y-1050290D01*
G01X678180Y-1041654D01*
G01X674116Y-1028954D01*
G01X674116Y-1020318D01*
G01X678180Y-1007364D01*
G01X686816Y-998982D01*
G01X695452Y-994664D01*
G01X708406Y-994664D01*
G01X638302Y-994664D02*
G01X621030Y-1054608D01*
G01X604012Y-994664D02*
G01X621030Y-1054608D01*
G01X604012Y-994664D02*
G01X586740Y-1054608D01*
G01X569722Y-994664D02*
G01X586740Y-1054608D01*
G01X533908Y-1020318D02*
G01X482346Y-1020318D01*
G01X482346Y-1011682D01*
G01X486664Y-1003046D01*
G01X490982Y-998982D01*
G01X499618Y-994664D01*
G01X512572Y-994664D01*
G01X520954Y-998982D01*
G01X529590Y-1007364D01*
G01X533908Y-1020318D01*
G01X533908Y-1028954D01*
G01X529590Y-1041654D01*
G01X520954Y-1050290D01*
G01X512572Y-1054608D01*
G01X499618Y-1054608D01*
G01X490982Y-1050290D01*
G01X482346Y-1041654D01*
G01X446532Y-994664D02*
G01X446532Y-1054608D01*
G01X446532Y-1020318D02*
G01X442214Y-1007364D01*
G01X433578Y-998982D01*
G01X425196Y-994664D01*
G01X412242Y-994664D01*
G54D12*
G01X1318260Y-1122680D02*
G01X1324864Y-1129284D01*
G01X1331468Y-1138936D01*
G01X1337818Y-1151890D01*
G01X1341120Y-1168146D01*
G01X1341120Y-1181354D01*
G01X1337818Y-1197610D01*
G01X1331468Y-1210564D01*
G01X1324864Y-1220216D01*
G01X1318260Y-1226820D01*
G01X1292352Y-1135634D02*
G01X1266444Y-1203960D01*
G01X1240282Y-1135634D02*
G01X1266444Y-1203960D01*
G01X1214374Y-1135634D02*
G01X1214374Y-1203960D01*
G01X1188466Y-1135634D02*
G01X1188466Y-1203960D01*
G01X1188466Y-1135634D02*
G01X1143000Y-1203960D01*
G01X1143000Y-1135634D02*
G01X1143000Y-1203960D01*
G01X1044194Y-1135634D02*
G01X1041146Y-1138936D01*
G01X1037844Y-1135634D01*
G01X1041146Y-1132332D01*
G01X1044194Y-1135634D01*
G01X1041146Y-1158494D02*
G01X1041146Y-1203960D01*
G01X976376Y-1168146D02*
G01X979424Y-1161796D01*
G01X989330Y-1158494D01*
G01X998982Y-1158494D01*
G01X1008888Y-1161796D01*
G01X1011936Y-1168146D01*
G01X1008888Y-1174750D01*
G01X1002284Y-1178052D01*
G01X986028Y-1181354D01*
G01X979424Y-1184402D01*
G01X976376Y-1191006D01*
G01X976376Y-1194308D01*
G01X979424Y-1200912D01*
G01X989330Y-1203960D01*
G01X998982Y-1203960D01*
G01X1008888Y-1200912D01*
G01X1011936Y-1194308D01*
G01X877570Y-1135634D02*
G01X877570Y-1203960D01*
G01X851662Y-1135634D02*
G01X848614Y-1138936D01*
G01X845312Y-1135634D01*
G01X848614Y-1132332D01*
G01X851662Y-1135634D01*
G01X848614Y-1158494D02*
G01X848614Y-1203960D01*
G01X819404Y-1158494D02*
G01X819404Y-1203960D01*
G01X819404Y-1171448D02*
G01X809752Y-1161796D01*
G01X803148Y-1158494D01*
G01X793496Y-1158494D01*
G01X786892Y-1161796D01*
G01X783844Y-1171448D01*
G01X783844Y-1203960D01*
G01X757936Y-1135634D02*
G01X757936Y-1203960D01*
G01X725424Y-1158494D02*
G01X757936Y-1191006D01*
G01X744982Y-1178052D02*
G01X722376Y-1203960D01*
G01X696468Y-1178052D02*
G01X657606Y-1178052D01*
G01X657606Y-1171448D01*
G01X660908Y-1165098D01*
G01X663956Y-1161796D01*
G01X670560Y-1158494D01*
G01X680212Y-1158494D01*
G01X686816Y-1161796D01*
G01X693420Y-1168146D01*
G01X696468Y-1178052D01*
G01X696468Y-1184402D01*
G01X693420Y-1194308D01*
G01X686816Y-1200912D01*
G01X680212Y-1203960D01*
G01X670560Y-1203960D01*
G01X663956Y-1200912D01*
G01X657606Y-1194308D01*
G01X592836Y-1135634D02*
G01X592836Y-1203960D01*
G01X592836Y-1168146D02*
G01X599186Y-1161796D01*
G01X605790Y-1158494D01*
G01X615442Y-1158494D01*
G01X622046Y-1161796D01*
G01X628650Y-1168146D01*
G01X631698Y-1178052D01*
G01X631698Y-1184402D01*
G01X628650Y-1194308D01*
G01X622046Y-1200912D01*
G01X615442Y-1203960D01*
G01X605790Y-1203960D01*
G01X599186Y-1200912D01*
G01X592836Y-1194308D01*
G01X560578Y-1191006D02*
G01X563880Y-1194308D01*
G01X566928Y-1191006D01*
G01X563880Y-1187704D01*
G01X560578Y-1191006D01*
G01X560578Y-1197610D01*
G01X566928Y-1203960D01*
G01X1251966Y-1272794D02*
G01X1258570Y-1276096D01*
G01X1264920Y-1282446D01*
G01X1268222Y-1292352D01*
G01X1268222Y-1298702D01*
G01X1264920Y-1308608D01*
G01X1258570Y-1315212D01*
G01X1251966Y-1318260D01*
G01X1242060Y-1318260D01*
G01X1235710Y-1315212D01*
G01X1229106Y-1308608D01*
G01X1225804Y-1298702D01*
G01X1225804Y-1292352D01*
G01X1229106Y-1282446D01*
G01X1235710Y-1276096D01*
G01X1242060Y-1272794D01*
G01X1251966Y-1272794D01*
G01X1199896Y-1272794D02*
G01X1199896Y-1318260D01*
G01X1199896Y-1285748D02*
G01X1190244Y-1276096D01*
G01X1183640Y-1272794D01*
G01X1173988Y-1272794D01*
G01X1167384Y-1276096D01*
G01X1164336Y-1285748D01*
G01X1164336Y-1318260D01*
G01X1138428Y-1249934D02*
G01X1138428Y-1318260D01*
G01X1109472Y-1272794D02*
G01X1089914Y-1318260D01*
G01X1070356Y-1272794D02*
G01X1089914Y-1318260D01*
G01X1096264Y-1331468D01*
G01X1102868Y-1337818D01*
G01X1109472Y-1341120D01*
G01X1112520Y-1341120D01*
G01X971550Y-1272794D02*
G01X971550Y-1305306D01*
G01X968502Y-1315212D01*
G01X961898Y-1318260D01*
G01X952246Y-1318260D01*
G01X945642Y-1315212D01*
G01X935990Y-1305306D01*
G01X935990Y-1272794D02*
G01X935990Y-1318260D01*
G01X874522Y-1282446D02*
G01X877570Y-1276096D01*
G01X887476Y-1272794D01*
G01X897128Y-1272794D01*
G01X907034Y-1276096D01*
G01X910082Y-1282446D01*
G01X907034Y-1289050D01*
G01X900430Y-1292352D01*
G01X884174Y-1295654D01*
G01X877570Y-1298702D01*
G01X874522Y-1305306D01*
G01X874522Y-1308608D01*
G01X877570Y-1315212D01*
G01X887476Y-1318260D01*
G01X897128Y-1318260D01*
G01X907034Y-1315212D01*
G01X910082Y-1308608D01*
G01X848614Y-1292352D02*
G01X809752Y-1292352D01*
G01X809752Y-1285748D01*
G01X813054Y-1279398D01*
G01X816102Y-1276096D01*
G01X822706Y-1272794D01*
G01X832358Y-1272794D01*
G01X838962Y-1276096D01*
G01X845566Y-1282446D01*
G01X848614Y-1292352D01*
G01X848614Y-1298702D01*
G01X845566Y-1308608D01*
G01X838962Y-1315212D01*
G01X832358Y-1318260D01*
G01X822706Y-1318260D01*
G01X816102Y-1315212D01*
G01X809752Y-1308608D01*
G01X694690Y-1272794D02*
G01X701294Y-1276096D01*
G01X707898Y-1282446D01*
G01X710946Y-1292352D01*
G01X710946Y-1298702D01*
G01X707898Y-1308608D01*
G01X701294Y-1315212D01*
G01X694690Y-1318260D01*
G01X685038Y-1318260D01*
G01X678434Y-1315212D01*
G01X672084Y-1308608D01*
G01X668782Y-1298702D01*
G01X668782Y-1292352D01*
G01X672084Y-1282446D01*
G01X678434Y-1276096D01*
G01X685038Y-1272794D01*
G01X694690Y-1272794D01*
G01X642874Y-1272794D02*
G01X642874Y-1318260D01*
G01X642874Y-1285748D02*
G01X633222Y-1276096D01*
G01X626618Y-1272794D01*
G01X616966Y-1272794D01*
G01X610362Y-1276096D01*
G01X607314Y-1285748D01*
G01X607314Y-1318260D01*
G01X581406Y-1292352D02*
G01X542544Y-1292352D01*
G01X542544Y-1285748D01*
G01X545846Y-1279398D01*
G01X548894Y-1276096D01*
G01X555498Y-1272794D01*
G01X565150Y-1272794D01*
G01X571754Y-1276096D01*
G01X578358Y-1282446D01*
G01X581406Y-1292352D01*
G01X581406Y-1298702D01*
G01X578358Y-1308608D01*
G01X571754Y-1315212D01*
G01X565150Y-1318260D01*
G01X555498Y-1318260D01*
G01X548894Y-1315212D01*
G01X542544Y-1308608D01*
G01X516636Y-1236980D02*
G01X510286Y-1243584D01*
G01X503682Y-1253236D01*
G01X497332Y-1266190D01*
G01X494030Y-1282446D01*
G01X494030Y-1295654D01*
G01X497332Y-1311910D01*
G01X503682Y-1324864D01*
G01X510286Y-1334516D01*
G01X516636Y-1341120D01*
G54D11*
G01X1571244Y-2247646D02*
G01X1571244Y-2298954D01*
G01X1592580Y-2260346D02*
G01X1549654Y-2286254D01*
G01X1549654Y-2260346D02*
G01X1592580Y-2286254D01*
G01X1366266Y-2221992D02*
G01X1409192Y-2221992D01*
G01X1413510Y-2260346D01*
G01X1409192Y-2256282D01*
G01X1396492Y-2251964D01*
G01X1383538Y-2251964D01*
G01X1370584Y-2256282D01*
G01X1362202Y-2264664D01*
G01X1357884Y-2277618D01*
G01X1357884Y-2286254D01*
G01X1362202Y-2298954D01*
G01X1370584Y-2307590D01*
G01X1383538Y-2311908D01*
G01X1396492Y-2311908D01*
G01X1409192Y-2307590D01*
G01X1413510Y-2303272D01*
G01X1417828Y-2294636D01*
G01X1322070Y-2221992D02*
G01X1287780Y-2311908D01*
G01X1253490Y-2221992D02*
G01X1287780Y-2311908D01*
G01X1070102Y-2221992D02*
G01X1070102Y-2311908D01*
G01X1070102Y-2264664D02*
G01X1078738Y-2256282D01*
G01X1087374Y-2251964D01*
G01X1100328Y-2251964D01*
G01X1108710Y-2256282D01*
G01X1117346Y-2264664D01*
G01X1121664Y-2277618D01*
G01X1121664Y-2286254D01*
G01X1117346Y-2298954D01*
G01X1108710Y-2307590D01*
G01X1100328Y-2311908D01*
G01X1087374Y-2311908D01*
G01X1078738Y-2307590D01*
G01X1070102Y-2298954D01*
G01X982726Y-2251964D02*
G01X982726Y-2311908D01*
G01X982726Y-2264664D02*
G01X991362Y-2256282D01*
G01X999998Y-2251964D01*
G01X1012952Y-2251964D01*
G01X1021334Y-2256282D01*
G01X1029970Y-2264664D01*
G01X1034288Y-2277618D01*
G01X1034288Y-2286254D01*
G01X1029970Y-2298954D01*
G01X1021334Y-2307590D01*
G01X1012952Y-2311908D01*
G01X999998Y-2311908D01*
G01X991362Y-2307590D01*
G01X982726Y-2298954D01*
G01X933958Y-2221992D02*
G01X933958Y-2294636D01*
G01X929640Y-2307590D01*
G01X921258Y-2311908D01*
G01X912622Y-2311908D01*
G01X946912Y-2251964D02*
G01X916940Y-2251964D01*
G01X825246Y-2251964D02*
G01X825246Y-2311908D01*
G01X825246Y-2264664D02*
G01X833882Y-2256282D01*
G01X842518Y-2251964D01*
G01X855472Y-2251964D01*
G01X863854Y-2256282D01*
G01X872490Y-2264664D01*
G01X876808Y-2277618D01*
G01X876808Y-2286254D01*
G01X872490Y-2298954D01*
G01X863854Y-2307590D01*
G01X855472Y-2311908D01*
G01X842518Y-2311908D01*
G01X833882Y-2307590D01*
G01X825246Y-2298954D01*
G01X672084Y-2251964D02*
G01X680466Y-2256282D01*
G01X689102Y-2264664D01*
G01X693420Y-2277618D01*
G01X693420Y-2286254D01*
G01X689102Y-2298954D01*
G01X680466Y-2307590D01*
G01X672084Y-2311908D01*
G01X659130Y-2311908D01*
G01X650494Y-2307590D01*
G01X641858Y-2298954D01*
G01X637794Y-2286254D01*
G01X637794Y-2277618D01*
G01X641858Y-2264664D01*
G01X650494Y-2256282D01*
G01X659130Y-2251964D01*
G01X672084Y-2251964D01*
G01X601980Y-2251964D02*
G01X601980Y-2294636D01*
G01X597662Y-2307590D01*
G01X589026Y-2311908D01*
G01X576326Y-2311908D01*
G01X567690Y-2307590D01*
G01X554736Y-2294636D01*
G01X554736Y-2251964D02*
G01X554736Y-2311908D01*
G01X505968Y-2221992D02*
G01X505968Y-2294636D01*
G01X501650Y-2307590D01*
G01X493268Y-2311908D01*
G01X484632Y-2311908D01*
G01X518922Y-2251964D02*
G01X488950Y-2251964D01*
G54D12*
G01X1329583Y-3082534D02*
G01X1293769Y-3082534D01*
G01X1313327Y-3108696D01*
G01X1303675Y-3108696D01*
G01X1297071Y-3111998D01*
G01X1293769Y-3115046D01*
G01X1290721Y-3124952D01*
G01X1290721Y-3131302D01*
G01X1293769Y-3141208D01*
G01X1300373Y-3147812D01*
G01X1310025Y-3150860D01*
G01X1319931Y-3150860D01*
G01X1329583Y-3147812D01*
G01X1332885Y-3144510D01*
G01X1336187Y-3137906D01*
G01X1264813Y-3082534D02*
G01X1238905Y-3150860D01*
G01X1212743Y-3082534D02*
G01X1238905Y-3150860D01*
G01X1180485Y-3082534D02*
G01X1144671Y-3082534D01*
G01X1164229Y-3108696D01*
G01X1154323Y-3108696D01*
G01X1147973Y-3111998D01*
G01X1144671Y-3115046D01*
G01X1141369Y-3124952D01*
G01X1141369Y-3131302D01*
G01X1144671Y-3141208D01*
G01X1151275Y-3147812D01*
G01X1160927Y-3150860D01*
G01X1170579Y-3150860D01*
G01X1180485Y-3147812D01*
G01X1183787Y-3144510D01*
G01X1186835Y-3137906D01*
G01X1263289Y-3196834D02*
G01X1263289Y-3265160D01*
G01X1263289Y-3196834D02*
G01X1240429Y-3196834D01*
G01X1230777Y-3200136D01*
G01X1224173Y-3206740D01*
G01X1220871Y-3213090D01*
G01X1217823Y-3222996D01*
G01X1217823Y-3239252D01*
G01X1220871Y-3248904D01*
G01X1224173Y-3255508D01*
G01X1230777Y-3262112D01*
G01X1240429Y-3265160D01*
G01X1263289Y-3265160D01*
G01X1172611Y-3196834D02*
G01X1178961Y-3200136D01*
G01X1185565Y-3206740D01*
G01X1188867Y-3213090D01*
G01X1191915Y-3222996D01*
G01X1191915Y-3239252D01*
G01X1188867Y-3248904D01*
G01X1185565Y-3255508D01*
G01X1178961Y-3262112D01*
G01X1172611Y-3265160D01*
G01X1159403Y-3265160D01*
G01X1153053Y-3262112D01*
G01X1146449Y-3255508D01*
G01X1143147Y-3248904D01*
G01X1139845Y-3239252D01*
G01X1139845Y-3222996D01*
G01X1143147Y-3213090D01*
G01X1146449Y-3206740D01*
G01X1153053Y-3200136D01*
G01X1159403Y-3196834D01*
G01X1172611Y-3196834D01*
G01X1377569Y-2392680D02*
G01X1384173Y-2399284D01*
G01X1390777Y-2408936D01*
G01X1397127Y-2421890D01*
G01X1400429Y-2438146D01*
G01X1400429Y-2451354D01*
G01X1397127Y-2467610D01*
G01X1390777Y-2480564D01*
G01X1384173Y-2490216D01*
G01X1377569Y-2496820D01*
G01X1351661Y-2418842D02*
G01X1345311Y-2415540D01*
G01X1335405Y-2405634D01*
G01X1335405Y-2473960D01*
G01X1309497Y-2405634D02*
G01X1283589Y-2438146D01*
G01X1283589Y-2473960D01*
G01X1257427Y-2405634D02*
G01X1283589Y-2438146D01*
G01X1173099Y-2392680D02*
G01X1231519Y-2496820D01*
G01X1144143Y-2421890D02*
G01X1144143Y-2418842D01*
G01X1140841Y-2412238D01*
G01X1137539Y-2408936D01*
G01X1130935Y-2405634D01*
G01X1117981Y-2405634D01*
G01X1111631Y-2408936D01*
G01X1108329Y-2412238D01*
G01X1105027Y-2418842D01*
G01X1105027Y-2425192D01*
G01X1108329Y-2431796D01*
G01X1114679Y-2441448D01*
G01X1147191Y-2473960D01*
G01X1101725Y-2473960D01*
G01X1075817Y-2405634D02*
G01X1049909Y-2438146D01*
G01X1049909Y-2473960D01*
G01X1023747Y-2405634D02*
G01X1049909Y-2438146D01*
G01X939419Y-2392680D02*
G01X997839Y-2496820D01*
G01X907161Y-2405634D02*
G01X871347Y-2405634D01*
G01X890905Y-2431796D01*
G01X880999Y-2431796D01*
G01X874649Y-2435098D01*
G01X871347Y-2438146D01*
G01X868045Y-2448052D01*
G01X868045Y-2454402D01*
G01X871347Y-2464308D01*
G01X877951Y-2470912D01*
G01X887603Y-2473960D01*
G01X897255Y-2473960D01*
G01X907161Y-2470912D01*
G01X910463Y-2467610D01*
G01X913511Y-2461006D01*
G01X842137Y-2405634D02*
G01X816229Y-2438146D01*
G01X816229Y-2473960D01*
G01X790067Y-2405634D02*
G01X816229Y-2438146D01*
G01X705739Y-2392680D02*
G01X764159Y-2496820D01*
G01X647319Y-2405634D02*
G01X679831Y-2451354D01*
G01X631063Y-2451354D01*
G01X647319Y-2405634D02*
G01X647319Y-2473960D01*
G01X605155Y-2405634D02*
G01X579247Y-2438146D01*
G01X579247Y-2473960D01*
G01X553085Y-2405634D02*
G01X579247Y-2438146D01*
G01X527177Y-2392680D02*
G01X520827Y-2399284D01*
G01X514223Y-2408936D01*
G01X507873Y-2421890D01*
G01X504571Y-2438146D01*
G01X504571Y-2451354D01*
G01X507873Y-2467610D01*
G01X514223Y-2480564D01*
G01X520827Y-2490216D01*
G01X527177Y-2496820D01*
G54D11*
G01X614680Y-639064D02*
G01X589026Y-699008D01*
G01X563118Y-639064D02*
G01X589026Y-699008D01*
G01X501650Y-609092D02*
G01X514350Y-613156D01*
G01X522986Y-626110D01*
G01X527304Y-647446D01*
G01X527304Y-660400D01*
G01X522986Y-681736D01*
G01X514350Y-694690D01*
G01X501650Y-699008D01*
G01X493014Y-699008D01*
G01X480060Y-694690D01*
G01X471678Y-681736D01*
G01X467360Y-660400D01*
G01X467360Y-647446D01*
G01X471678Y-626110D01*
G01X480060Y-613156D01*
G01X493014Y-609092D01*
G01X501650Y-609092D01*
G01X427228Y-677672D02*
G01X431546Y-681736D01*
G01X427228Y-686054D01*
G01X422910Y-681736D01*
G01X427228Y-677672D01*
G01X387096Y-626110D02*
G01X378460Y-621792D01*
G01X365760Y-609092D01*
G01X365760Y-699008D01*
G54D12*
G01X1280922Y-1865884D02*
G01X1313434Y-1865884D01*
G01X1316736Y-1895348D01*
G01X1313434Y-1892046D01*
G01X1303782Y-1888744D01*
G01X1293876Y-1888744D01*
G01X1284224Y-1892046D01*
G01X1277620Y-1898396D01*
G01X1274572Y-1908302D01*
G01X1274572Y-1914652D01*
G01X1277620Y-1924558D01*
G01X1284224Y-1931162D01*
G01X1293876Y-1934210D01*
G01X1303782Y-1934210D01*
G01X1313434Y-1931162D01*
G01X1316736Y-1927860D01*
G01X1320038Y-1921256D01*
G01X1248664Y-1865884D02*
G01X1222756Y-1934210D01*
G01X1196594Y-1865884D02*
G01X1222756Y-1934210D01*
G01X1094740Y-1882140D02*
G01X1094740Y-1879092D01*
G01X1091438Y-1872488D01*
G01X1088136Y-1869186D01*
G01X1081532Y-1865884D01*
G01X1068578Y-1865884D01*
G01X1062228Y-1869186D01*
G01X1058926Y-1872488D01*
G01X1055624Y-1879092D01*
G01X1055624Y-1885442D01*
G01X1058926Y-1892046D01*
G01X1065276Y-1901698D01*
G01X1097788Y-1934210D01*
G01X1052322Y-1934210D01*
G01X1000506Y-1865884D02*
G01X1026414Y-1934210D01*
G01X1000506Y-1865884D02*
G01X974344Y-1934210D01*
G01X1016762Y-1911604D02*
G01X984250Y-1911604D01*
G01X852932Y-1852930D02*
G01X859282Y-1859534D01*
G01X865886Y-1869186D01*
G01X872490Y-1882140D01*
G01X875538Y-1898396D01*
G01X875538Y-1911604D01*
G01X872490Y-1927860D01*
G01X865886Y-1940814D01*
G01X859282Y-1950466D01*
G01X852932Y-1957070D01*
G01X827024Y-1865884D02*
G01X801116Y-1934210D01*
G01X774954Y-1865884D02*
G01X801116Y-1934210D01*
G01X703580Y-1875790D02*
G01X710184Y-1869186D01*
G01X719836Y-1865884D01*
G01X732790Y-1865884D01*
G01X742696Y-1869186D01*
G01X749046Y-1875790D01*
G01X749046Y-1882140D01*
G01X745998Y-1888744D01*
G01X742696Y-1892046D01*
G01X736092Y-1895348D01*
G01X716534Y-1901698D01*
G01X710184Y-1905000D01*
G01X706882Y-1908302D01*
G01X703580Y-1914652D01*
G01X703580Y-1924558D01*
G01X710184Y-1931162D01*
G01X719836Y-1934210D01*
G01X732790Y-1934210D01*
G01X742696Y-1931162D01*
G01X749046Y-1924558D01*
G01X677672Y-1865884D02*
G01X651764Y-1898396D01*
G01X651764Y-1934210D01*
G01X625602Y-1865884D02*
G01X651764Y-1898396D01*
G01X554228Y-1875790D02*
G01X560832Y-1869186D01*
G01X570484Y-1865884D01*
G01X583438Y-1865884D01*
G01X593344Y-1869186D01*
G01X599694Y-1875790D01*
G01X599694Y-1882140D01*
G01X596646Y-1888744D01*
G01X593344Y-1892046D01*
G01X586740Y-1895348D01*
G01X567182Y-1901698D01*
G01X560832Y-1905000D01*
G01X557530Y-1908302D01*
G01X554228Y-1914652D01*
G01X554228Y-1924558D01*
G01X560832Y-1931162D01*
G01X570484Y-1934210D01*
G01X583438Y-1934210D01*
G01X593344Y-1931162D01*
G01X599694Y-1924558D01*
G01X528320Y-1852930D02*
G01X521970Y-1859534D01*
G01X515366Y-1869186D01*
G01X509016Y-1882140D01*
G01X505714Y-1898396D01*
G01X505714Y-1911604D01*
G01X509016Y-1927860D01*
G01X515366Y-1940814D01*
G01X521970Y-1950466D01*
G01X528320Y-1957070D01*
G01X1464945Y-1882902D02*
G01X1504315Y-1905000D01*
G01X1464945Y-1927098D01*
G01X1442847Y-1905000D02*
G01X1398651Y-1905000D01*
G04 Text End*

G04 PolygonModel Start*
G01X825500Y-3683000D02*
G03X952500Y-3429000I-147863J232682D01*
G01X825500Y-2667000D02*
G02X952500Y-2921000I-147863J-232682D01*
G01X952500Y-2921000D02*
G03X1079500Y-3175000I274863J-21318D01*
G01X952500Y-3429000D02*
G02X1079500Y-3175000I274863J21318D01*

M02*

