G04 Layer: BottomSolderMaskLayer*
G04 EasyEDA Pro v2.2.37.7, 2025-03-30 22:28:03*
G04 Gerber Generator version 0.3*
G04 Scale: 100 percent, Rotated: No, Reflected: No*
G04 Dimensions in millimeters*
G04 Leading zeros omitted, absolute positions, 4 integers and 5 decimals*
%FSLAX45Y45*%
%MOMM*%
%ADD10C,1.7018*%
%ADD11C,2.2016*%
G75*


G04 Pad Start*
G54D10*
G01X127000Y-127000D03*
G01X127000Y-381000D03*
G01X127000Y-635000D03*
G01X127000Y-889000D03*
G01X127000Y-1143000D03*
G01X127000Y-1397000D03*
G01X127000Y-1651000D03*
G01X127000Y-1905000D03*
G01X127000Y-2159000D03*
G01X127000Y-2413000D03*
G01X1905000Y-127000D03*
G01X1905000Y-381000D03*
G01X1905000Y-635000D03*
G01X1905000Y-889000D03*
G01X1905000Y-1143000D03*
G01X1905000Y-1397000D03*
G01X1905000Y-2413000D03*
G01X1905000Y-2159000D03*
G01X1905000Y-1905000D03*
G01X1905000Y-1651000D03*
G01X127000Y-2667000D03*
G01X127000Y-2921000D03*
G01X127000Y-3175000D03*
G01X127000Y-3429000D03*
G01X127000Y-3683000D03*
G01X127000Y-3937000D03*
G01X127000Y-4953000D03*
G01X127000Y-4699000D03*
G01X127000Y-4445000D03*
G01X127000Y-4191000D03*
G01X1905000Y-2667000D03*
G01X1905000Y-4191000D03*
G01X1905000Y-4445000D03*
G01X1905000Y-4699000D03*
G01X1905000Y-4953000D03*
G01X1905000Y-3937000D03*
G01X1905000Y-3683000D03*
G01X1905000Y-3429000D03*
G01X1905000Y-3175000D03*
G01X1905000Y-2921000D03*
G54D11*
G01X1553693Y-317500D03*
G01X1203706Y-317500D03*
G01X853694Y-317500D03*
G01X503707Y-317500D03*
G01X478307Y-4762500D03*
G01X828294Y-4762500D03*
G01X1178306Y-4762500D03*
G01X1528293Y-4762500D03*
G54D10*
G01X635000Y-2921000D03*
G01X635000Y-2667000D03*
G01X635000Y-3429000D03*
G01X635000Y-3683000D03*
G01X635000Y-3175000D03*
G01X1651000Y-1905000D03*
G04 Pad End*

M02*

