G04 Layer: BottomSilkscreenLayer*
G04 EasyEDA Pro v2.2.39.2, 2025-05-20 15:29:26*
G04 Gerber Generator version 0.3*
G04 Scale: 100 percent, Rotated: No, Reflected: No*
G04 Dimensions in millimeters*
G04 Leading zeros omitted, absolute positions, 4 integers and 5 decimals*
G04 Generated by one-click*
%FSLAX45Y45*%
%MOMM*%
%ADD10C,0.2032*%
%ADD11C,0.1524*%
%ADD12C,0.1016*%
%ADD13C,0.3590*%
G75*


G04 Text Start*
G54D10*
G01X1615440Y-547370D02*
G01X1615440Y-700786D01*
G01X1615440Y-547370D02*
G01X1549654Y-547370D01*
G01X1527810Y-554736D01*
G01X1520444Y-562102D01*
G01X1513078Y-576580D01*
G01X1513078Y-598424D01*
G01X1520444Y-613156D01*
G01X1527810Y-620522D01*
G01X1549654Y-627634D01*
G01X1615440Y-627634D01*
G01X1457706Y-547370D02*
G01X1450340Y-554736D01*
G01X1442974Y-547370D01*
G01X1450340Y-540004D01*
G01X1457706Y-547370D01*
G01X1450340Y-598424D02*
G01X1450340Y-700786D01*
G01X1299972Y-620522D02*
G01X1314450Y-605790D01*
G01X1329182Y-598424D01*
G01X1351026Y-598424D01*
G01X1365758Y-605790D01*
G01X1380236Y-620522D01*
G01X1387602Y-642366D01*
G01X1387602Y-656844D01*
G01X1380236Y-678942D01*
G01X1365758Y-693420D01*
G01X1351026Y-700786D01*
G01X1329182Y-700786D01*
G01X1314450Y-693420D01*
G01X1299972Y-678942D01*
G01X1208024Y-598424D02*
G01X1222756Y-605790D01*
G01X1237234Y-620522D01*
G01X1244600Y-642366D01*
G01X1244600Y-656844D01*
G01X1237234Y-678942D01*
G01X1222756Y-693420D01*
G01X1208024Y-700786D01*
G01X1186180Y-700786D01*
G01X1171448Y-693420D01*
G01X1156970Y-678942D01*
G01X1149604Y-656844D01*
G01X1149604Y-642366D01*
G01X1156970Y-620522D01*
G01X1171448Y-605790D01*
G01X1186180Y-598424D01*
G01X1208024Y-598424D01*
G01X1094232Y-547370D02*
G01X1094232Y-700786D01*
G01X1094232Y-700786D02*
G01X1006602Y-700786D01*
G01X951230Y-547370D02*
G01X951230Y-700786D01*
G01X951230Y-547370D02*
G01X856234Y-547370D01*
G01X951230Y-620522D02*
G01X892810Y-620522D01*
G01X951230Y-700786D02*
G01X856234Y-700786D01*
G01X800862Y-547370D02*
G01X800862Y-700786D01*
G01X800862Y-547370D02*
G01X749808Y-547370D01*
G01X727710Y-554736D01*
G01X713232Y-569214D01*
G01X705866Y-583946D01*
G01X698500Y-605790D01*
G01X698500Y-642366D01*
G01X705866Y-664210D01*
G01X713232Y-678942D01*
G01X727710Y-693420D01*
G01X749808Y-700786D01*
G01X800862Y-700786D01*
G54D11*
G01X1545844Y-2628646D02*
G01X1545844Y-2679954D01*
G01X1567180Y-2641346D02*
G01X1524254Y-2667254D01*
G01X1524254Y-2641346D02*
G01X1567180Y-2667254D01*
G01X1340866Y-2602992D02*
G01X1383792Y-2602992D01*
G01X1388110Y-2641346D01*
G01X1383792Y-2637282D01*
G01X1371092Y-2632964D01*
G01X1358138Y-2632964D01*
G01X1345184Y-2637282D01*
G01X1336802Y-2645664D01*
G01X1332484Y-2658618D01*
G01X1332484Y-2667254D01*
G01X1336802Y-2679954D01*
G01X1345184Y-2688590D01*
G01X1358138Y-2692908D01*
G01X1371092Y-2692908D01*
G01X1383792Y-2688590D01*
G01X1388110Y-2684272D01*
G01X1392428Y-2675636D01*
G01X1296670Y-2654300D02*
G01X1219454Y-2654300D01*
G01X1183640Y-2620010D02*
G01X1175004Y-2615692D01*
G01X1162304Y-2602992D01*
G01X1162304Y-2692908D01*
G01X1074928Y-2602992D02*
G01X1117854Y-2602992D01*
G01X1122172Y-2641346D01*
G01X1117854Y-2637282D01*
G01X1105154Y-2632964D01*
G01X1092200Y-2632964D01*
G01X1079246Y-2637282D01*
G01X1070864Y-2645664D01*
G01X1066546Y-2658618D01*
G01X1066546Y-2667254D01*
G01X1070864Y-2679954D01*
G01X1079246Y-2688590D01*
G01X1092200Y-2692908D01*
G01X1105154Y-2692908D01*
G01X1117854Y-2688590D01*
G01X1122172Y-2684272D01*
G01X1126490Y-2675636D01*
G01X1030732Y-2602992D02*
G01X996442Y-2692908D01*
G01X962152Y-2602992D02*
G01X996442Y-2692908D01*
G01X830326Y-2632964D02*
G01X830326Y-2722880D01*
G01X830326Y-2645664D02*
G01X821690Y-2637282D01*
G01X813054Y-2632964D01*
G01X800354Y-2632964D01*
G01X791718Y-2637282D01*
G01X783082Y-2645664D01*
G01X778764Y-2658618D01*
G01X778764Y-2667254D01*
G01X783082Y-2679954D01*
G01X791718Y-2688590D01*
G01X800354Y-2692908D01*
G01X813054Y-2692908D01*
G01X821690Y-2688590D01*
G01X830326Y-2679954D01*
G01X721614Y-2632964D02*
G01X729996Y-2637282D01*
G01X738632Y-2645664D01*
G01X742950Y-2658618D01*
G01X742950Y-2667254D01*
G01X738632Y-2679954D01*
G01X729996Y-2688590D01*
G01X721614Y-2692908D01*
G01X708660Y-2692908D01*
G01X700024Y-2688590D01*
G01X691388Y-2679954D01*
G01X687324Y-2667254D01*
G01X687324Y-2658618D01*
G01X691388Y-2645664D01*
G01X700024Y-2637282D01*
G01X708660Y-2632964D01*
G01X721614Y-2632964D01*
G01X651510Y-2632964D02*
G01X634238Y-2692908D01*
G01X617220Y-2632964D02*
G01X634238Y-2692908D01*
G01X617220Y-2632964D02*
G01X599948Y-2692908D01*
G01X582930Y-2632964D02*
G01X599948Y-2692908D01*
G01X547116Y-2658618D02*
G01X495554Y-2658618D01*
G01X495554Y-2649982D01*
G01X499872Y-2641346D01*
G01X504190Y-2637282D01*
G01X512826Y-2632964D01*
G01X525780Y-2632964D01*
G01X534162Y-2637282D01*
G01X542798Y-2645664D01*
G01X547116Y-2658618D01*
G01X547116Y-2667254D01*
G01X542798Y-2679954D01*
G01X534162Y-2688590D01*
G01X525780Y-2692908D01*
G01X512826Y-2692908D01*
G01X504190Y-2688590D01*
G01X495554Y-2679954D01*
G01X459740Y-2632964D02*
G01X459740Y-2692908D01*
G01X459740Y-2658618D02*
G01X455422Y-2645664D01*
G01X446786Y-2637282D01*
G01X438404Y-2632964D01*
G01X425450Y-2632964D01*
G54D12*
G01X1292860Y-2760980D02*
G01X1299464Y-2767584D01*
G01X1306068Y-2777236D01*
G01X1312418Y-2790190D01*
G01X1315720Y-2806446D01*
G01X1315720Y-2819654D01*
G01X1312418Y-2835910D01*
G01X1306068Y-2848864D01*
G01X1299464Y-2858516D01*
G01X1292860Y-2865120D01*
G01X1266952Y-2773934D02*
G01X1241044Y-2842260D01*
G01X1214882Y-2773934D02*
G01X1241044Y-2842260D01*
G01X1188974Y-2773934D02*
G01X1188974Y-2842260D01*
G01X1163066Y-2773934D02*
G01X1163066Y-2842260D01*
G01X1163066Y-2773934D02*
G01X1117600Y-2842260D01*
G01X1117600Y-2773934D02*
G01X1117600Y-2842260D01*
G01X1018794Y-2773934D02*
G01X1015746Y-2777236D01*
G01X1012444Y-2773934D01*
G01X1015746Y-2770632D01*
G01X1018794Y-2773934D01*
G01X1015746Y-2796794D02*
G01X1015746Y-2842260D01*
G01X950976Y-2806446D02*
G01X954024Y-2800096D01*
G01X963930Y-2796794D01*
G01X973582Y-2796794D01*
G01X983488Y-2800096D01*
G01X986536Y-2806446D01*
G01X983488Y-2813050D01*
G01X976884Y-2816352D01*
G01X960628Y-2819654D01*
G01X954024Y-2822702D01*
G01X950976Y-2829306D01*
G01X950976Y-2832608D01*
G01X954024Y-2839212D01*
G01X963930Y-2842260D01*
G01X973582Y-2842260D01*
G01X983488Y-2839212D01*
G01X986536Y-2832608D01*
G01X852170Y-2773934D02*
G01X852170Y-2842260D01*
G01X826262Y-2773934D02*
G01X823214Y-2777236D01*
G01X819912Y-2773934D01*
G01X823214Y-2770632D01*
G01X826262Y-2773934D01*
G01X823214Y-2796794D02*
G01X823214Y-2842260D01*
G01X794004Y-2796794D02*
G01X794004Y-2842260D01*
G01X794004Y-2809748D02*
G01X784352Y-2800096D01*
G01X777748Y-2796794D01*
G01X768096Y-2796794D01*
G01X761492Y-2800096D01*
G01X758444Y-2809748D01*
G01X758444Y-2842260D01*
G01X732536Y-2773934D02*
G01X732536Y-2842260D01*
G01X700024Y-2796794D02*
G01X732536Y-2829306D01*
G01X719582Y-2816352D02*
G01X696976Y-2842260D01*
G01X671068Y-2816352D02*
G01X632206Y-2816352D01*
G01X632206Y-2809748D01*
G01X635508Y-2803398D01*
G01X638556Y-2800096D01*
G01X645160Y-2796794D01*
G01X654812Y-2796794D01*
G01X661416Y-2800096D01*
G01X668020Y-2806446D01*
G01X671068Y-2816352D01*
G01X671068Y-2822702D01*
G01X668020Y-2832608D01*
G01X661416Y-2839212D01*
G01X654812Y-2842260D01*
G01X645160Y-2842260D01*
G01X638556Y-2839212D01*
G01X632206Y-2832608D01*
G01X567436Y-2773934D02*
G01X567436Y-2842260D01*
G01X567436Y-2806446D02*
G01X573786Y-2800096D01*
G01X580390Y-2796794D01*
G01X590042Y-2796794D01*
G01X596646Y-2800096D01*
G01X603250Y-2806446D01*
G01X606298Y-2816352D01*
G01X606298Y-2822702D01*
G01X603250Y-2832608D01*
G01X596646Y-2839212D01*
G01X590042Y-2842260D01*
G01X580390Y-2842260D01*
G01X573786Y-2839212D01*
G01X567436Y-2832608D01*
G01X535178Y-2829306D02*
G01X538480Y-2832608D01*
G01X541528Y-2829306D01*
G01X538480Y-2826004D01*
G01X535178Y-2829306D01*
G01X535178Y-2835910D01*
G01X541528Y-2842260D01*
G01X1226566Y-2911094D02*
G01X1233170Y-2914396D01*
G01X1239520Y-2920746D01*
G01X1242822Y-2930652D01*
G01X1242822Y-2937002D01*
G01X1239520Y-2946908D01*
G01X1233170Y-2953512D01*
G01X1226566Y-2956560D01*
G01X1216660Y-2956560D01*
G01X1210310Y-2953512D01*
G01X1203706Y-2946908D01*
G01X1200404Y-2937002D01*
G01X1200404Y-2930652D01*
G01X1203706Y-2920746D01*
G01X1210310Y-2914396D01*
G01X1216660Y-2911094D01*
G01X1226566Y-2911094D01*
G01X1174496Y-2911094D02*
G01X1174496Y-2956560D01*
G01X1174496Y-2924048D02*
G01X1164844Y-2914396D01*
G01X1158240Y-2911094D01*
G01X1148588Y-2911094D01*
G01X1141984Y-2914396D01*
G01X1138936Y-2924048D01*
G01X1138936Y-2956560D01*
G01X1113028Y-2888234D02*
G01X1113028Y-2956560D01*
G01X1084072Y-2911094D02*
G01X1064514Y-2956560D01*
G01X1044956Y-2911094D02*
G01X1064514Y-2956560D01*
G01X1070864Y-2969768D01*
G01X1077468Y-2976118D01*
G01X1084072Y-2979420D01*
G01X1087120Y-2979420D01*
G01X946150Y-2911094D02*
G01X946150Y-2943606D01*
G01X943102Y-2953512D01*
G01X936498Y-2956560D01*
G01X926846Y-2956560D01*
G01X920242Y-2953512D01*
G01X910590Y-2943606D01*
G01X910590Y-2911094D02*
G01X910590Y-2956560D01*
G01X849122Y-2920746D02*
G01X852170Y-2914396D01*
G01X862076Y-2911094D01*
G01X871728Y-2911094D01*
G01X881634Y-2914396D01*
G01X884682Y-2920746D01*
G01X881634Y-2927350D01*
G01X875030Y-2930652D01*
G01X858774Y-2933954D01*
G01X852170Y-2937002D01*
G01X849122Y-2943606D01*
G01X849122Y-2946908D01*
G01X852170Y-2953512D01*
G01X862076Y-2956560D01*
G01X871728Y-2956560D01*
G01X881634Y-2953512D01*
G01X884682Y-2946908D01*
G01X823214Y-2930652D02*
G01X784352Y-2930652D01*
G01X784352Y-2924048D01*
G01X787654Y-2917698D01*
G01X790702Y-2914396D01*
G01X797306Y-2911094D01*
G01X806958Y-2911094D01*
G01X813562Y-2914396D01*
G01X820166Y-2920746D01*
G01X823214Y-2930652D01*
G01X823214Y-2937002D01*
G01X820166Y-2946908D01*
G01X813562Y-2953512D01*
G01X806958Y-2956560D01*
G01X797306Y-2956560D01*
G01X790702Y-2953512D01*
G01X784352Y-2946908D01*
G01X669290Y-2911094D02*
G01X675894Y-2914396D01*
G01X682498Y-2920746D01*
G01X685546Y-2930652D01*
G01X685546Y-2937002D01*
G01X682498Y-2946908D01*
G01X675894Y-2953512D01*
G01X669290Y-2956560D01*
G01X659638Y-2956560D01*
G01X653034Y-2953512D01*
G01X646684Y-2946908D01*
G01X643382Y-2937002D01*
G01X643382Y-2930652D01*
G01X646684Y-2920746D01*
G01X653034Y-2914396D01*
G01X659638Y-2911094D01*
G01X669290Y-2911094D01*
G01X617474Y-2911094D02*
G01X617474Y-2956560D01*
G01X617474Y-2924048D02*
G01X607822Y-2914396D01*
G01X601218Y-2911094D01*
G01X591566Y-2911094D01*
G01X584962Y-2914396D01*
G01X581914Y-2924048D01*
G01X581914Y-2956560D01*
G01X556006Y-2930652D02*
G01X517144Y-2930652D01*
G01X517144Y-2924048D01*
G01X520446Y-2917698D01*
G01X523494Y-2914396D01*
G01X530098Y-2911094D01*
G01X539750Y-2911094D01*
G01X546354Y-2914396D01*
G01X552958Y-2920746D01*
G01X556006Y-2930652D01*
G01X556006Y-2937002D01*
G01X552958Y-2946908D01*
G01X546354Y-2953512D01*
G01X539750Y-2956560D01*
G01X530098Y-2956560D01*
G01X523494Y-2953512D01*
G01X517144Y-2946908D01*
G01X491236Y-2875280D02*
G01X484886Y-2881884D01*
G01X478282Y-2891536D01*
G01X471932Y-2904490D01*
G01X468630Y-2920746D01*
G01X468630Y-2933954D01*
G01X471932Y-2950210D01*
G01X478282Y-2963164D01*
G01X484886Y-2972816D01*
G01X491236Y-2979420D01*
G54D11*
G01X1545844Y-964946D02*
G01X1545844Y-1016254D01*
G01X1567180Y-977646D02*
G01X1524254Y-1003554D01*
G01X1524254Y-977646D02*
G01X1567180Y-1003554D01*
G01X1340866Y-939292D02*
G01X1383792Y-939292D01*
G01X1388110Y-977646D01*
G01X1383792Y-973582D01*
G01X1371092Y-969264D01*
G01X1358138Y-969264D01*
G01X1345184Y-973582D01*
G01X1336802Y-981964D01*
G01X1332484Y-994918D01*
G01X1332484Y-1003554D01*
G01X1336802Y-1016254D01*
G01X1345184Y-1024890D01*
G01X1358138Y-1029208D01*
G01X1371092Y-1029208D01*
G01X1383792Y-1024890D01*
G01X1388110Y-1020572D01*
G01X1392428Y-1011936D01*
G01X1296670Y-939292D02*
G01X1262380Y-1029208D01*
G01X1228090Y-939292D02*
G01X1262380Y-1029208D01*
G01X1044702Y-939292D02*
G01X1044702Y-1029208D01*
G01X1044702Y-981964D02*
G01X1053338Y-973582D01*
G01X1061974Y-969264D01*
G01X1074928Y-969264D01*
G01X1083310Y-973582D01*
G01X1091946Y-981964D01*
G01X1096264Y-994918D01*
G01X1096264Y-1003554D01*
G01X1091946Y-1016254D01*
G01X1083310Y-1024890D01*
G01X1074928Y-1029208D01*
G01X1061974Y-1029208D01*
G01X1053338Y-1024890D01*
G01X1044702Y-1016254D01*
G01X957326Y-969264D02*
G01X957326Y-1029208D01*
G01X957326Y-981964D02*
G01X965962Y-973582D01*
G01X974598Y-969264D01*
G01X987552Y-969264D01*
G01X995934Y-973582D01*
G01X1004570Y-981964D01*
G01X1008888Y-994918D01*
G01X1008888Y-1003554D01*
G01X1004570Y-1016254D01*
G01X995934Y-1024890D01*
G01X987552Y-1029208D01*
G01X974598Y-1029208D01*
G01X965962Y-1024890D01*
G01X957326Y-1016254D01*
G01X908558Y-939292D02*
G01X908558Y-1011936D01*
G01X904240Y-1024890D01*
G01X895858Y-1029208D01*
G01X887222Y-1029208D01*
G01X921512Y-969264D02*
G01X891540Y-969264D01*
G01X799846Y-969264D02*
G01X799846Y-1029208D01*
G01X799846Y-981964D02*
G01X808482Y-973582D01*
G01X817118Y-969264D01*
G01X830072Y-969264D01*
G01X838454Y-973582D01*
G01X847090Y-981964D01*
G01X851408Y-994918D01*
G01X851408Y-1003554D01*
G01X847090Y-1016254D01*
G01X838454Y-1024890D01*
G01X830072Y-1029208D01*
G01X817118Y-1029208D01*
G01X808482Y-1024890D01*
G01X799846Y-1016254D01*
G01X646684Y-969264D02*
G01X655066Y-973582D01*
G01X663702Y-981964D01*
G01X668020Y-994918D01*
G01X668020Y-1003554D01*
G01X663702Y-1016254D01*
G01X655066Y-1024890D01*
G01X646684Y-1029208D01*
G01X633730Y-1029208D01*
G01X625094Y-1024890D01*
G01X616458Y-1016254D01*
G01X612394Y-1003554D01*
G01X612394Y-994918D01*
G01X616458Y-981964D01*
G01X625094Y-973582D01*
G01X633730Y-969264D01*
G01X646684Y-969264D01*
G01X576580Y-969264D02*
G01X576580Y-1011936D01*
G01X572262Y-1024890D01*
G01X563626Y-1029208D01*
G01X550926Y-1029208D01*
G01X542290Y-1024890D01*
G01X529336Y-1011936D01*
G01X529336Y-969264D02*
G01X529336Y-1029208D01*
G01X480568Y-939292D02*
G01X480568Y-1011936D01*
G01X476250Y-1024890D01*
G01X467868Y-1029208D01*
G01X459232Y-1029208D01*
G01X493522Y-969264D02*
G01X463550Y-969264D01*
G54D12*
G01X1062883Y-1812534D02*
G01X1027069Y-1812534D01*
G01X1046627Y-1838696D01*
G01X1036975Y-1838696D01*
G01X1030371Y-1841998D01*
G01X1027069Y-1845046D01*
G01X1024021Y-1854952D01*
G01X1024021Y-1861302D01*
G01X1027069Y-1871208D01*
G01X1033673Y-1877812D01*
G01X1043325Y-1880860D01*
G01X1053231Y-1880860D01*
G01X1062883Y-1877812D01*
G01X1066185Y-1874510D01*
G01X1069487Y-1867906D01*
G01X998113Y-1812534D02*
G01X972205Y-1880860D01*
G01X946043Y-1812534D02*
G01X972205Y-1880860D01*
G01X913785Y-1812534D02*
G01X877971Y-1812534D01*
G01X897529Y-1838696D01*
G01X887623Y-1838696D01*
G01X881273Y-1841998D01*
G01X877971Y-1845046D01*
G01X874669Y-1854952D01*
G01X874669Y-1861302D01*
G01X877971Y-1871208D01*
G01X884575Y-1877812D01*
G01X894227Y-1880860D01*
G01X903879Y-1880860D01*
G01X913785Y-1877812D01*
G01X917087Y-1874510D01*
G01X920135Y-1867906D01*
G01X996589Y-1926834D02*
G01X996589Y-1995160D01*
G01X996589Y-1926834D02*
G01X973729Y-1926834D01*
G01X964077Y-1930136D01*
G01X957473Y-1936740D01*
G01X954171Y-1943090D01*
G01X951123Y-1952996D01*
G01X951123Y-1969252D01*
G01X954171Y-1978904D01*
G01X957473Y-1985508D01*
G01X964077Y-1992112D01*
G01X973729Y-1995160D01*
G01X996589Y-1995160D01*
G01X905911Y-1926834D02*
G01X912261Y-1930136D01*
G01X918865Y-1936740D01*
G01X922167Y-1943090D01*
G01X925215Y-1952996D01*
G01X925215Y-1969252D01*
G01X922167Y-1978904D01*
G01X918865Y-1985508D01*
G01X912261Y-1992112D01*
G01X905911Y-1995160D01*
G01X892703Y-1995160D01*
G01X886353Y-1992112D01*
G01X879749Y-1985508D01*
G01X876447Y-1978904D01*
G01X873145Y-1969252D01*
G01X873145Y-1952996D01*
G01X876447Y-1943090D01*
G01X879749Y-1936740D01*
G01X886353Y-1930136D01*
G01X892703Y-1926834D01*
G01X905911Y-1926834D01*
G01X1352169Y-1109980D02*
G01X1358773Y-1116584D01*
G01X1365377Y-1126236D01*
G01X1371727Y-1139190D01*
G01X1375029Y-1155446D01*
G01X1375029Y-1168654D01*
G01X1371727Y-1184910D01*
G01X1365377Y-1197864D01*
G01X1358773Y-1207516D01*
G01X1352169Y-1214120D01*
G01X1326261Y-1136142D02*
G01X1319911Y-1132840D01*
G01X1310005Y-1122934D01*
G01X1310005Y-1191260D01*
G01X1284097Y-1122934D02*
G01X1258189Y-1155446D01*
G01X1258189Y-1191260D01*
G01X1232027Y-1122934D02*
G01X1258189Y-1155446D01*
G01X1147699Y-1109980D02*
G01X1206119Y-1214120D01*
G01X1118743Y-1139190D02*
G01X1118743Y-1136142D01*
G01X1115441Y-1129538D01*
G01X1112139Y-1126236D01*
G01X1105535Y-1122934D01*
G01X1092581Y-1122934D01*
G01X1086231Y-1126236D01*
G01X1082929Y-1129538D01*
G01X1079627Y-1136142D01*
G01X1079627Y-1142492D01*
G01X1082929Y-1149096D01*
G01X1089279Y-1158748D01*
G01X1121791Y-1191260D01*
G01X1076325Y-1191260D01*
G01X1050417Y-1122934D02*
G01X1024509Y-1155446D01*
G01X1024509Y-1191260D01*
G01X998347Y-1122934D02*
G01X1024509Y-1155446D01*
G01X914019Y-1109980D02*
G01X972439Y-1214120D01*
G01X881761Y-1122934D02*
G01X845947Y-1122934D01*
G01X865505Y-1149096D01*
G01X855599Y-1149096D01*
G01X849249Y-1152398D01*
G01X845947Y-1155446D01*
G01X842645Y-1165352D01*
G01X842645Y-1171702D01*
G01X845947Y-1181608D01*
G01X852551Y-1188212D01*
G01X862203Y-1191260D01*
G01X871855Y-1191260D01*
G01X881761Y-1188212D01*
G01X885063Y-1184910D01*
G01X888111Y-1178306D01*
G01X816737Y-1122934D02*
G01X790829Y-1155446D01*
G01X790829Y-1191260D01*
G01X764667Y-1122934D02*
G01X790829Y-1155446D01*
G01X680339Y-1109980D02*
G01X738759Y-1214120D01*
G01X621919Y-1122934D02*
G01X654431Y-1168654D01*
G01X605663Y-1168654D01*
G01X621919Y-1122934D02*
G01X621919Y-1191260D01*
G01X579755Y-1122934D02*
G01X553847Y-1155446D01*
G01X553847Y-1191260D01*
G01X527685Y-1122934D02*
G01X553847Y-1155446D01*
G01X501777Y-1109980D02*
G01X495427Y-1116584D01*
G01X488823Y-1126236D01*
G01X482473Y-1139190D01*
G01X479171Y-1155446D01*
G01X479171Y-1168654D01*
G01X482473Y-1184910D01*
G01X488823Y-1197864D01*
G01X495427Y-1207516D01*
G01X501777Y-1214120D01*
G54D11*
G01X614680Y-639064D02*
G01X589026Y-699008D01*
G01X563118Y-639064D02*
G01X589026Y-699008D01*
G01X501650Y-609092D02*
G01X514350Y-613156D01*
G01X522986Y-626110D01*
G01X527304Y-647446D01*
G01X527304Y-660400D01*
G01X522986Y-681736D01*
G01X514350Y-694690D01*
G01X501650Y-699008D01*
G01X493014Y-699008D01*
G01X480060Y-694690D01*
G01X471678Y-681736D01*
G01X467360Y-660400D01*
G01X467360Y-647446D01*
G01X471678Y-626110D01*
G01X480060Y-613156D01*
G01X493014Y-609092D01*
G01X501650Y-609092D01*
G01X427228Y-677672D02*
G01X431546Y-681736D01*
G01X427228Y-686054D01*
G01X422910Y-681736D01*
G01X427228Y-677672D01*
G01X382778Y-630428D02*
G01X382778Y-626110D01*
G01X378460Y-617474D01*
G01X374142Y-613156D01*
G01X365760Y-609092D01*
G01X348488Y-609092D01*
G01X339852Y-613156D01*
G01X335534Y-617474D01*
G01X331470Y-626110D01*
G01X331470Y-634746D01*
G01X335534Y-643382D01*
G01X344170Y-656082D01*
G01X387096Y-699008D01*
G01X327152Y-699008D01*
G54D12*
G01X1530604Y-2196084D02*
G01X1563116Y-2196084D01*
G01X1566418Y-2225548D01*
G01X1563116Y-2222246D01*
G01X1553464Y-2218944D01*
G01X1543558Y-2218944D01*
G01X1533906Y-2222246D01*
G01X1527302Y-2228596D01*
G01X1524254Y-2238502D01*
G01X1524254Y-2244852D01*
G01X1527302Y-2254758D01*
G01X1533906Y-2261362D01*
G01X1543558Y-2264410D01*
G01X1553464Y-2264410D01*
G01X1563116Y-2261362D01*
G01X1566418Y-2258060D01*
G01X1569720Y-2251456D01*
G01X1498346Y-2196084D02*
G01X1472438Y-2264410D01*
G01X1446276Y-2196084D02*
G01X1472438Y-2264410D01*
G01X1344422Y-2212340D02*
G01X1344422Y-2209292D01*
G01X1341120Y-2202688D01*
G01X1337818Y-2199386D01*
G01X1331214Y-2196084D01*
G01X1318260Y-2196084D01*
G01X1311910Y-2199386D01*
G01X1308608Y-2202688D01*
G01X1305306Y-2209292D01*
G01X1305306Y-2215642D01*
G01X1308608Y-2222246D01*
G01X1314958Y-2231898D01*
G01X1347470Y-2264410D01*
G01X1302004Y-2264410D01*
G01X1250188Y-2196084D02*
G01X1276096Y-2264410D01*
G01X1250188Y-2196084D02*
G01X1224026Y-2264410D01*
G01X1266444Y-2241804D02*
G01X1233932Y-2241804D01*
G01X1374902Y-2089150D02*
G01X1397000Y-2049780D01*
G01X1419098Y-2089150D01*
G01X1397000Y-2111248D02*
G01X1397000Y-2155444D01*
G04 Text End*

G04 PolygonModel Start*
G01X558800Y-2413000D02*
G03X685800Y-2159000I-147863J232682D01*
G01X558800Y-1397000D02*
G02X685800Y-1651000I-147863J-232682D01*
G01X685800Y-1651000D02*
G03X812800Y-1905000I274863J-21318D01*
G01X685800Y-2159000D02*
G02X812800Y-1905000I274863J21318D01*

M02*

